<svg version="1.1" id="Layer_1" xmlns="http://www.w3.org/2000/svg" xmlns:xlink="http://www.w3.org/1999/xlink" x="0px" y="0px"
	 width="100%" viewBox="0 0 512 512" enable-background="new 0 0 512 512" xml:space="preserve">
<path fill="#FBD747" opacity="1.000000" stroke="none" 
	d="
M1.000000,279.000000 
	C1.000000,264.645782 1.000000,250.291550 1.352529,235.237213 
	C2.470951,227.832703 2.983252,221.087692 4.048092,214.431091 
	C7.965065,189.945038 15.444672,166.533417 26.380932,144.302872 
	C36.155579,124.433624 47.721848,105.607704 63.102383,89.548523 
	C74.652893,77.488365 86.278427,65.309059 99.165039,54.764835 
	C117.939445,39.403057 139.062012,27.537374 161.748093,18.660440 
	C181.394760,10.972808 201.579315,5.400428 222.584717,2.961342 
	C226.742981,2.478496 230.862579,1.662411 235.000000,1.000000 
	C249.354233,1.000000 263.708466,1.000000 278.762787,1.352525 
	C292.095154,3.696973 304.859711,5.083210 317.332001,7.807580 
	C342.878510,13.387800 366.652588,23.572554 389.109863,36.982689 
	C416.526855,53.354431 439.789642,74.463264 459.526581,99.342255 
	C474.390076,118.078087 486.210236,138.756683 495.055084,161.081757 
	C503.615143,182.688019 509.388519,204.955383 511.440063,228.011078 
	C509.489807,226.532440 507.767242,225.226517 506.252106,223.712952 
	C470.453735,187.951248 434.679779,152.165115 398.890930,116.393906 
	C397.364105,114.867836 395.737549,113.441513 393.913055,111.679337 
	C392.078674,110.925575 390.512787,110.342300 388.895142,110.014420 
	C359.067566,103.968666 328.983063,101.271820 298.536072,102.813332 
	C270.524231,104.231552 243.349228,109.280128 217.684006,120.978882 
	C193.636765,131.940109 173.817703,148.052277 159.411667,170.345551 
	C142.404953,196.663361 135.657898,226.100922 133.769180,256.955994 
	C132.121048,283.880890 134.819611,310.500000 138.944000,337.307251 
	C126.475563,349.747437 114.183029,361.899811 102.357170,373.590851 
	C107.361031,378.927002 111.657547,383.508850 116.070206,388.403168 
	C121.102989,393.317474 126.019638,397.919312 131.029678,402.822754 
	C132.449005,404.605438 133.707672,406.153748 135.110687,407.557831 
	C168.633408,441.105621 202.175110,474.634430 235.695648,508.184418 
	C237.215012,509.705109 238.569000,511.391022 240.000000,513.000000 
	C238.611115,513.000000 237.222214,513.000000 235.185150,512.647522 
	C227.832520,511.529083 221.087479,511.016693 214.430832,509.951843 
	C189.944794,506.034851 166.533188,498.555206 144.302658,487.618958 
	C124.433411,477.844330 105.607559,466.277954 89.548355,450.897522 
	C77.488197,439.347015 65.308937,427.721466 54.764721,414.834869 
	C39.402966,396.060455 27.537315,374.937927 18.660423,352.251831 
	C10.972818,332.605194 5.400425,312.420654 2.961342,291.415314 
	C2.478497,287.257019 1.662410,283.137421 1.000000,279.000000 
z"/>
<path fill="#E9BA13" opacity="1.000000" stroke="none" 
	d="
M240.468658,513.000000 
	C238.569000,511.391022 237.215012,509.705109 235.695648,508.184418 
	C202.175110,474.634430 168.633408,441.105621 135.110687,407.557831 
	C133.707672,406.153748 132.449005,404.605438 131.229340,402.518982 
	C143.530365,389.789856 155.725128,377.666107 168.359070,365.616699 
	C185.013458,367.182770 201.202408,369.131165 217.449646,370.066132 
	C246.563934,371.741608 275.201782,368.855499 302.933014,359.199005 
	C341.107330,345.906067 368.450043,320.820099 385.014709,283.958771 
	C398.075317,254.895065 402.448914,224.073792 402.631927,192.608551 
	C402.789978,165.441559 399.919617,138.492416 393.811401,112.004837 
	C393.927246,112.035690 394.157471,111.968704 394.157471,111.968704 
	C395.737549,113.441513 397.364105,114.867836 398.890930,116.393906 
	C434.679779,152.165115 470.453735,187.951248 506.252106,223.712952 
	C507.767242,225.226517 509.489807,226.532440 511.506531,228.421204 
	C512.264893,230.938187 512.632446,232.969086 513.000000,235.000000 
	C513.000000,249.354233 513.000000,263.708466 512.623718,278.732178 
	C510.266205,292.017578 508.897247,304.767334 506.175629,317.221466 
	C500.583893,342.809082 490.388947,366.632111 476.956635,389.121307 
	C460.614868,416.481720 439.559448,439.733917 414.716919,459.420380 
	C395.935425,474.303741 375.225616,486.191437 352.824982,495.017609 
	C332.959412,502.844940 312.569977,508.495697 291.333252,511.001587 
	C287.201111,511.489197 283.110046,512.324890 279.000000,513.000000 
	C266.312439,513.000000 253.624878,513.000000 240.468658,513.000000 
z"/>
<path fill="#FFFFFF" opacity="1.000000" stroke="none" 
	d="
M234.531342,1.000000 
	C230.862579,1.662411 226.742981,2.478496 222.584717,2.961342 
	C201.579315,5.400428 181.394760,10.972808 161.748093,18.660440 
	C139.062012,27.537374 117.939445,39.403057 99.165039,54.764835 
	C86.278427,65.309059 74.652893,77.488365 63.102383,89.548523 
	C47.721848,105.607704 36.155579,124.433624 26.380932,144.302872 
	C15.444672,166.533417 7.965065,189.945038 4.048092,214.431091 
	C2.983252,221.087692 2.470951,227.832703 1.352529,234.768555 
	C1.000000,157.072952 1.000000,79.145912 1.000000,1.000000 
	C78.687424,1.000000 156.375061,1.000000 234.531342,1.000000 
z"/>
<path fill="#FFFFFF" opacity="1.000000" stroke="none" 
	d="
M513.000000,234.531342 
	C512.632446,232.969086 512.264893,230.938187 511.830872,228.497162 
	C509.388519,204.955383 503.615143,182.688019 495.055084,161.081757 
	C486.210236,138.756683 474.390076,118.078087 459.526581,99.342255 
	C439.789642,74.463264 416.526855,53.354431 389.109863,36.982689 
	C366.652588,23.572554 342.878510,13.387800 317.332001,7.807580 
	C304.859711,5.083210 292.095154,3.696973 279.231445,1.352525 
	C356.927032,1.000000 434.854095,1.000000 513.000000,1.000000 
	C513.000000,78.687424 513.000000,156.375061 513.000000,234.531342 
z"/>
<path fill="#FFFFFF" opacity="1.000000" stroke="none" 
	d="
M1.000000,279.468658 
	C1.662410,283.137421 2.478497,287.257019 2.961342,291.415314 
	C5.400425,312.420654 10.972818,332.605194 18.660423,352.251831 
	C27.537315,374.937927 39.402966,396.060455 54.764721,414.834869 
	C65.308937,427.721466 77.488197,439.347015 89.548355,450.897522 
	C105.607559,466.277954 124.433411,477.844330 144.302658,487.618958 
	C166.533188,498.555206 189.944794,506.034851 214.430832,509.951843 
	C221.087479,511.016693 227.832520,511.529083 234.768494,512.647522 
	C157.072968,513.000000 79.145927,513.000000 1.000000,513.000000 
	C1.000000,435.312561 1.000000,357.624939 1.000000,279.468658 
z"/>
<path fill="#FFFFFF" opacity="1.000000" stroke="none" 
	d="
M279.468658,513.000000 
	C283.110046,512.324890 287.201111,511.489197 291.333252,511.001587 
	C312.569977,508.495697 332.959412,502.844940 352.824982,495.017609 
	C375.225616,486.191437 395.935425,474.303741 414.716919,459.420380 
	C439.559448,439.733917 460.614868,416.481720 476.956635,389.121307 
	C490.388947,366.632111 500.583893,342.809082 506.175629,317.221466 
	C508.897247,304.767334 510.266205,292.017578 512.623718,279.200806 
	C513.000000,356.927032 513.000000,434.854095 513.000000,513.000000 
	C435.312561,513.000000 357.624939,513.000000 279.468658,513.000000 
z"/>
<path fill="#39B54A" opacity="1.000000" stroke="none" 
	d="
M139.119904,337.019470 
	C134.819611,310.500000 132.121048,283.880890 133.769180,256.955994 
	C135.657898,226.100922 142.404953,196.663361 159.411667,170.345551 
	C173.817703,148.052277 193.636765,131.940109 217.684006,120.978882 
	C243.349228,109.280128 270.524231,104.231552 298.536072,102.813332 
	C328.983063,101.271820 359.067566,103.968666 388.895142,110.014420 
	C390.512787,110.342300 392.078674,110.925575 393.913055,111.679337 
	C394.157471,111.968704 393.927246,112.035690 393.494873,112.087341 
	C378.689331,126.419815 364.316162,140.700623 349.633667,154.976410 
	C348.913666,154.944916 348.503052,154.918457 347.925110,154.605011 
	C344.727234,151.225128 341.498627,148.298615 338.721313,144.992905 
	C335.906006,141.641907 333.975281,142.308395 331.178406,145.163239 
	C318.470215,158.134857 305.557007,170.905731 292.708344,183.739563 
	C291.486725,184.959732 290.200989,186.115692 288.001312,188.192474 
	C288.001312,185.211334 288.001343,183.594498 288.001312,181.977676 
	C288.001129,172.481003 287.777679,162.976807 288.097870,153.490952 
	C288.250793,148.960449 286.632629,147.787567 282.342621,147.912689 
	C272.854004,148.189453 263.344818,148.213226 253.858124,147.905777 
	C249.302155,147.758148 247.855347,149.132874 247.898849,153.788208 
	C248.116821,177.111328 248.100159,200.438629 247.857544,223.761261 
	C247.830048,226.403793 246.525848,229.667648 244.692993,231.555130 
	C231.578674,245.060074 218.179474,258.288574 204.849472,271.583527 
	C203.885803,272.544678 202.753586,273.336792 200.999817,274.785767 
	C200.999817,269.743958 200.807144,265.747803 201.055466,261.779266 
	C201.291077,258.014160 199.782394,256.866089 196.131699,256.935852 
	C186.305420,257.123657 176.467850,257.188446 166.645752,256.911743 
	C162.339600,256.790466 160.831238,257.994690 160.900940,262.500763 
	C161.150864,278.657898 161.070282,294.821930 160.911774,310.981384 
	C160.890732,313.124237 160.317978,315.840973 158.944458,317.292297 
	C152.539337,324.060211 145.763306,330.477081 139.119904,337.019470 
z"/>
<path fill="#009245" opacity="1.000000" stroke="none" 
	d="
M138.944000,337.307251 
	C145.763306,330.477081 152.539337,324.060211 158.944458,317.292297 
	C160.317978,315.840973 160.890732,313.124237 160.911774,310.981384 
	C161.070282,294.821930 161.150864,278.657898 160.900940,262.500763 
	C160.831238,257.994690 162.339600,256.790466 166.645752,256.911743 
	C176.467850,257.188446 186.305420,257.123657 196.131699,256.935852 
	C199.782394,256.866089 201.291077,258.014160 201.055466,261.779266 
	C200.807144,265.747803 200.999817,269.743958 200.999817,274.785767 
	C202.753586,273.336792 203.885803,272.544678 204.849472,271.583527 
	C218.179474,258.288574 231.578674,245.060074 244.692993,231.555130 
	C246.525848,229.667648 247.830048,226.403793 247.857544,223.761261 
	C248.100159,200.438629 248.116821,177.111328 247.898849,153.788208 
	C247.855347,149.132874 249.302155,147.758148 253.858124,147.905777 
	C263.344818,148.213226 272.854004,148.189453 282.342621,147.912689 
	C286.632629,147.787567 288.250793,148.960449 288.097870,153.490952 
	C287.777679,162.976807 288.001129,172.481003 288.001312,181.977676 
	C288.001343,183.594498 288.001312,185.211334 288.001312,188.192474 
	C290.200989,186.115692 291.486725,184.959732 292.708344,183.739563 
	C305.557007,170.905731 318.470215,158.134857 331.178406,145.163239 
	C333.975281,142.308395 335.906006,141.641907 338.721313,144.992905 
	C341.498627,148.298615 344.727234,151.225128 347.757416,154.909348 
	C346.276306,157.077454 344.837463,158.696091 343.308868,160.224976 
	C269.087677,234.459946 194.857162,308.685547 120.641106,382.925659 
	C118.999329,384.567963 117.512917,386.365570 115.954048,388.090698 
	C111.657547,383.508850 107.361031,378.927002 102.357170,373.590851 
	C114.183029,361.899811 126.475563,349.747437 138.944000,337.307251 
z"/>
<path fill="#006937" opacity="1.000000" stroke="none" 
	d="
M116.070190,388.403198 
	C117.512917,386.365570 118.999329,384.567963 120.641106,382.925659 
	C194.857162,308.685547 269.087677,234.459946 343.308868,160.224976 
	C344.837463,158.696091 346.276306,157.077454 347.924744,155.196350 
	C348.503052,154.918457 348.913666,154.944916 349.800690,155.269958 
	C353.294708,158.673752 356.082062,162.055252 359.390015,164.812057 
	C363.252777,168.031235 362.550079,170.170227 359.240143,173.450653 
	C331.661133,200.783569 304.253845,228.289825 276.819366,255.768387 
	C275.541321,257.048462 274.497742,258.562653 272.515991,260.978241 
	C284.618042,260.978241 295.255646,261.117462 305.886261,260.906006 
	C309.839111,260.827393 311.129456,262.195557 311.043396,266.102081 
	C310.830566,275.763092 310.764648,285.438477 311.066345,295.094757 
	C311.208923,299.659943 309.809937,301.122070 305.156494,301.076782 
	C282.827545,300.859467 260.494659,301.067657 238.164780,300.905426 
	C233.670685,300.872803 230.279694,302.134521 227.085358,305.365662 
	C208.573975,324.090240 189.890732,342.644836 171.300064,361.291260 
	C170.029861,362.565247 169.040085,364.118805 167.919891,365.542358 
	C155.725128,377.666107 143.530365,389.789856 131.135941,402.217407 
	C126.019638,397.919312 121.102989,393.317474 116.070190,388.403198 
z"/>
<path fill="#019245" opacity="1.000000" stroke="none" 
	d="
M168.359070,365.616699 
	C169.040085,364.118805 170.029861,362.565247 171.300064,361.291260 
	C189.890732,342.644836 208.573975,324.090240 227.085358,305.365662 
	C230.279694,302.134521 233.670685,300.872803 238.164780,300.905426 
	C260.494659,301.067657 282.827545,300.859467 305.156494,301.076782 
	C309.809937,301.122070 311.208923,299.659943 311.066345,295.094757 
	C310.764648,285.438477 310.830566,275.763092 311.043396,266.102081 
	C311.129456,262.195557 309.839111,260.827393 305.886261,260.906006 
	C295.255646,261.117462 284.618042,260.978241 272.515991,260.978241 
	C274.497742,258.562653 275.541321,257.048462 276.819366,255.768387 
	C304.253845,228.289825 331.661133,200.783569 359.240143,173.450653 
	C362.550079,170.170227 363.252777,168.031235 359.390015,164.812057 
	C356.082062,162.055252 353.294708,158.673752 350.110046,155.274994 
	C364.316162,140.700623 378.689331,126.419815 393.379028,112.056488 
	C399.919617,138.492416 402.789978,165.441559 402.631927,192.608551 
	C402.448914,224.073792 398.075317,254.895065 385.014709,283.958771 
	C368.450043,320.820099 341.107330,345.906067 302.933014,359.199005 
	C275.201782,368.855499 246.563934,371.741608 217.449646,370.066132 
	C201.202408,369.131165 185.013458,367.182770 168.359070,365.616699 
z"/>
</svg>