<svg version="1.1" id="Layer_1" xmlns="http://www.w3.org/2000/svg" xmlns:xlink="http://www.w3.org/1999/xlink" x="0px" y="0px"
	 width="100%" viewBox="0 0 3400 1171" enable-background="new 0 0 3400 1171" xml:space="preserve">
<path fill="#FFFFFF" opacity="1.000000" stroke="none" 
	d="
M2368.000000,1172.000000 
	C1578.666626,1172.000000 789.833313,1172.000000 1.000000,1172.000000 
	C1.000000,781.666687 1.000000,391.333344 1.000000,1.000000 
	C1134.333374,1.000000 2267.666748,1.000000 3401.000000,1.000000 
	C3401.000000,391.333344 3401.000000,781.666687 3401.000000,1172.000000 
	C3056.833252,1172.000000 2712.666748,1172.000000 2368.000000,1172.000000 
M1159.947754,425.992279 
	C1159.947754,425.992279 1159.886963,425.949799 1159.484741,426.002411 
	C1159.384155,426.091461 1159.188110,426.197266 1159.200317,426.266510 
	C1159.242188,426.504700 1159.356812,426.730072 1159.825195,427.702972 
	C1160.428589,430.117767 1161.066162,432.524567 1161.629883,434.948608 
	C1164.815308,448.645599 1169.142944,462.042206 1168.330566,476.525909 
	C1167.577026,489.961151 1168.229370,503.475281 1168.056396,517.498779 
	C1168.125977,517.679810 1168.195557,517.860840 1168.184448,518.678223 
	C1168.213257,519.104004 1168.241943,519.529724 1168.040161,520.478088 
	C1168.058960,520.667542 1168.077759,520.856995 1168.016724,521.054199 
	C1168.016724,521.054199 1168.063477,521.119446 1167.513550,521.218323 
	C1167.328369,521.238037 1167.143066,521.257812 1166.330078,520.941040 
	C1157.560425,516.550720 1148.830688,512.077209 1139.990845,507.833221 
	C1137.979370,506.867554 1135.589478,506.244690 1133.368774,506.230438 
	C1114.203369,506.107208 1095.036255,506.098145 1075.871216,506.255005 
	C1073.961426,506.270599 1071.565308,507.110626 1070.234253,508.420715 
	C1055.150757,523.266541 1040.194702,538.243042 1025.334351,553.312500 
	C1024.113159,554.550964 1023.220337,556.723511 1023.217407,558.463806 
	C1023.138794,604.627930 1023.197388,650.792358 1023.038025,697.501343 
	C1023.266907,697.786133 1023.495789,698.070923 1024.047119,698.931091 
	C1040.033691,714.949707 1056.020264,730.968323 1072.117676,747.354065 
	C1072.426514,747.317261 1072.735229,747.280396 1073.973511,747.179382 
	C1087.778198,747.176514 1101.619995,746.541748 1115.376831,747.351013 
	C1128.766968,748.138733 1140.881104,745.689575 1152.301270,738.615356 
	C1157.986450,735.093567 1164.263794,732.527893 1170.446533,729.443298 
	C1172.405518,734.570862 1174.368164,738.977478 1175.740601,743.560852 
	C1176.633057,746.541443 1178.150879,747.244568 1181.064087,747.228577 
	C1198.359375,747.133728 1215.655762,747.234741 1233.141602,747.598511 
	C1233.444092,747.491760 1233.746460,747.385010 1234.723145,746.889771 
	C1233.964233,743.350159 1233.465332,739.730347 1232.401855,736.284668 
	C1227.357178,719.937378 1225.929810,703.293823 1226.005127,686.173218 
	C1226.376953,601.614685 1226.180786,517.053772 1226.174683,432.493683 
	C1226.174561,430.335754 1226.055664,428.177826 1225.884644,425.660583 
	C1225.587769,425.705048 1225.291016,425.749481 1224.064209,425.912048 
	C1203.046265,425.869843 1182.028198,425.827606 1160.785278,425.493011 
	C1160.512207,425.635468 1160.239258,425.777954 1159.947754,425.992279 
M2851.860107,425.997528 
	C2851.860107,425.997528 2852.053223,426.128174 2851.124268,425.948486 
	C2830.750244,425.895172 2810.376221,425.841827 2789.508301,425.334076 
	C2788.365479,425.619110 2787.222412,425.904114 2786.065674,426.964539 
	C2794.104736,450.367218 2796.301270,474.477661 2794.989746,499.051849 
	C2794.670654,505.028595 2794.944092,511.036896 2794.944824,517.030701 
	C2794.944824,518.419312 2794.944824,519.807861 2794.944824,521.826965 
	C2784.989014,516.884216 2775.820312,512.271606 2766.583252,507.800323 
	C2764.855225,506.963806 2762.854980,506.237915 2760.977539,506.230743 
	C2740.667480,506.153076 2720.356445,506.229462 2699.511963,506.061951 
	C2699.242676,506.303314 2698.973633,506.544647 2698.124512,507.100861 
	C2683.051514,522.171753 2667.918213,537.183594 2652.991455,552.397705 
	C2651.358887,554.061523 2650.050293,556.884888 2650.041748,559.175781 
	C2649.871094,604.313904 2649.883545,649.453064 2650.018799,694.591431 
	C2650.024902,696.625427 2651.016846,699.167480 2652.431152,700.607361 
	C2666.901611,715.341370 2681.498535,729.953552 2696.240234,744.416138 
	C2697.791016,745.937561 2700.487793,747.029907 2702.667480,747.054749 
	C2720.820557,747.261719 2738.977783,747.260620 2757.131348,747.078247 
	C2759.979980,747.049683 2763.033936,746.249634 2765.620117,745.020996 
	C2776.061279,740.060181 2786.356445,734.791809 2797.090820,729.445190 
	C2799.023926,734.542664 2800.959229,739.099487 2802.453857,743.796692 
	C2803.324951,746.534546 2804.737061,747.305725 2807.509277,747.234009 
	C2814.999512,747.040161 2822.498535,747.170227 2829.993896,747.170654 
	C2840.439941,747.171265 2850.885742,747.170837 2861.605957,747.170837 
	C2860.830566,743.734619 2860.355713,740.768372 2859.486816,737.922424 
	C2854.347900,721.092957 2852.679688,703.984314 2852.768555,686.329895 
	C2853.189697,602.716980 2852.958252,519.100708 2852.950195,435.485626 
	C2852.949951,432.657532 2852.852783,429.829407 2852.978516,426.581726 
	C2852.978516,426.581726 2852.941895,426.127533 2852.883301,425.743103 
	C2852.571289,425.755798 2852.259033,425.768524 2851.860107,425.997528 
M535.057678,971.709106 
	C535.429382,971.532227 535.801086,971.355347 536.060059,971.060608 
	C536.060059,971.060608 536.124390,971.210388 536.723511,971.134033 
	C537.179749,970.783691 537.635986,970.433350 537.989441,970.067505 
	C537.989441,970.067505 538.084290,970.111267 538.788452,970.038269 
	C567.929565,953.291748 597.095154,936.587830 626.206909,919.790405 
	C696.984741,878.951965 767.747192,838.086670 838.489136,797.185913 
	C848.107239,791.625061 857.572632,785.799866 867.021545,780.033508 
	C867.021545,780.033508 867.062256,780.133423 867.618042,780.071167 
	C867.981628,779.705322 868.345215,779.339417 868.946960,778.317627 
	C868.934570,777.856873 868.922180,777.396118 868.985535,776.009460 
	C868.989990,650.360474 868.995056,524.711548 868.988647,399.062561 
	C868.988586,397.737396 868.836609,396.412201 868.606689,394.433105 
	C867.063110,393.454742 865.551086,392.421936 863.971436,391.505798 
	C791.587708,349.528137 719.205261,307.548248 646.805969,265.597321 
	C611.259521,245.000320 575.680725,224.459229 539.778015,203.373734 
	C538.880554,202.867828 537.983154,202.361923 536.738403,201.431061 
	C536.123962,201.547409 535.509583,201.663757 534.578125,202.171844 
	C534.321045,202.387787 534.063904,202.603729 533.090637,202.885406 
	C524.531555,207.619873 515.907593,212.241425 507.425568,217.110153 
	C482.784637,231.254196 458.222534,245.535568 433.587830,259.690552 
	C409.817963,273.348572 385.959351,286.852325 362.207428,300.541229 
	C338.024353,314.478699 313.966827,328.634094 289.775970,342.557922 
	C261.405029,358.887787 232.937775,375.050354 204.566162,391.379120 
	C203.169205,392.183136 202.287521,393.882446 201.055862,396.065491 
	C201.036560,522.862366 201.014587,649.659302 201.038803,776.456177 
	C201.039017,777.643860 201.655045,778.831482 202.552734,780.397400 
	C203.692200,781.083679 204.820236,781.789734 205.972717,782.453369 
	C294.458160,833.405701 382.938080,884.367676 471.438477,935.294006 
	C491.176300,946.651855 510.986847,957.883301 531.127808,969.709045 
	C532.085815,970.165527 533.043884,970.621948 534.318237,971.303040 
	C534.318237,971.303040 534.705688,971.323364 534.742065,971.280762 
	C534.742065,971.280762 534.791687,971.306763 535.057678,971.709106 
M2157.958496,506.417084 
	C2157.624023,506.371735 2157.289307,506.326385 2156.030029,506.167938 
	C2125.701904,506.199524 2095.373535,506.231110 2064.499756,506.065948 
	C2064.319336,506.135101 2064.138672,506.204254 2063.224365,506.179962 
	C2061.549805,507.064056 2059.540527,507.609711 2058.251953,508.884064 
	C2043.558838,523.413147 2028.926758,538.005249 2014.439941,552.739380 
	C2013.007324,554.196533 2011.898560,556.701782 2011.891968,558.724548 
	C2011.748047,604.053101 2011.747437,649.382324 2011.885376,694.710938 
	C2011.891602,696.737061 2012.953613,699.255554 2014.377930,700.705383 
	C2028.857910,715.441833 2043.467163,730.052795 2058.198975,744.537476 
	C2059.651367,745.965515 2062.155273,747.051880 2064.177734,747.062500 
	C2094.174072,747.220825 2124.171875,747.128113 2154.168457,747.235718 
	C2157.150391,747.246399 2158.493164,746.405151 2159.438477,743.474426 
	C2164.535400,727.673767 2169.888184,711.955750 2175.152588,696.209106 
	C2176.229248,692.989075 2177.305176,689.768860 2178.867920,685.092712 
	C2172.494873,687.085632 2167.343262,688.234375 2162.572266,690.273438 
	C2147.122559,696.876282 2131.121338,699.162476 2114.389160,698.230225 
	C2108.289307,697.890381 2102.936279,696.521118 2097.251953,694.298157 
	C2086.602539,690.133545 2079.907715,683.192932 2075.719971,672.658447 
	C2073.532471,667.155884 2071.825684,662.010071 2071.884033,656.010010 
	C2072.108154,632.847656 2071.915039,609.681580 2072.057861,586.518005 
	C2072.074463,583.825378 2073.072754,581.097412 2073.859131,578.458191 
	C2077.074463,567.664917 2084.238281,560.678162 2094.873291,557.255554 
	C2097.655518,556.360168 2100.578369,555.450928 2103.455811,555.383667 
	C2113.282959,555.153809 2123.122559,555.135803 2132.949219,555.378052 
	C2136.699219,555.470459 2140.563965,556.045532 2144.139404,557.160156 
	C2155.328125,560.648071 2166.404297,564.498108 2177.984131,568.361328 
	C2177.914551,566.835083 2178.090576,565.803284 2177.795166,564.931458 
	C2171.241211,545.602905 2164.635010,526.292114 2157.958496,506.417084 
M1759.981689,506.180725 
	C1734.072021,506.180725 1708.162354,506.180725 1681.554321,506.180725 
	C1682.788818,508.749390 1683.747070,510.635010 1684.613037,512.562073 
	C1691.071045,526.933228 1698.002808,541.117310 1703.808472,555.747864 
	C1708.926147,568.644653 1712.762085,582.048950 1717.195190,595.218628 
	C1727.507690,625.855469 1737.828979,656.489441 1748.166138,687.117981 
	C1754.897095,707.061707 1761.661865,726.993896 1768.420654,746.958069 
	C1784.981445,746.958069 1801.269043,746.958069 1817.546143,746.958069 
	C1818.037354,745.693054 1818.498779,744.631653 1818.866821,743.538757 
	C1832.586548,702.790222 1846.023071,661.943604 1860.089478,621.315063 
	C1873.321289,583.096863 1883.266724,543.584778 1903.644531,508.102966 
	C1903.911255,507.638428 1903.747314,506.926483 1903.777954,506.434113 
	C1878.751587,506.434113 1853.979492,506.434113 1828.538696,506.434113 
	C1829.604858,514.704834 1830.661011,522.609497 1831.632690,530.524536 
	C1832.409058,536.847046 1833.223267,542.975159 1830.902466,549.418823 
	C1824.748291,566.505615 1819.192993,583.809570 1813.485718,601.055603 
	C1807.072876,620.433899 1800.754272,639.843384 1794.563354,658.724609 
	C1793.936279,655.478516 1793.572388,651.101562 1792.232056,647.047363 
	C1780.771973,612.382324 1769.125122,577.779114 1757.587158,543.139771 
	C1757.135376,541.783325 1756.913452,540.208679 1757.099609,538.804016 
	C1758.444458,528.662903 1759.922241,518.539368 1761.766602,507.973267 
	C1761.474365,507.433319 1761.182251,506.893341 1759.981689,506.180725 
M3054.293945,506.258514 
	C3053.995850,506.400879 3053.630371,506.475433 3053.409668,506.695404 
	C3037.720703,522.322754 3022.009766,537.928467 3006.436523,553.670654 
	C3005.342773,554.776062 3004.801270,556.895020 3004.798096,558.544250 
	C3004.709717,604.001770 3004.696289,649.459595 3004.820312,694.916992 
	C3004.825439,696.798584 3005.803223,699.141907 3007.125488,700.484497 
	C3021.844482,715.428894 3036.692139,730.247009 3051.609375,744.993774 
	C3052.757324,746.128723 3054.692871,747.078003 3056.265625,747.082703 
	C3094.229980,747.197083 3132.194824,747.139099 3170.159180,747.236572 
	C3172.905518,747.243652 3173.851562,746.146423 3174.585449,743.775452 
	C3176.596924,737.277954 3178.847412,730.854492 3181.008057,724.403198 
	C3185.353760,711.428589 3189.702881,698.455017 3194.295898,684.749329 
	C3192.734131,685.319336 3192.012451,685.603760 3191.277588,685.847839 
	C3178.852539,689.975769 3166.425293,694.098633 3153.502686,698.063538 
	C3153.337646,698.117065 3153.172363,698.170654 3152.078125,698.083740 
	C3137.608398,698.078369 3123.130859,697.795532 3108.671875,698.184875 
	C3101.459473,698.379150 3095.267090,696.428528 3088.730713,693.569824 
	C3079.540039,689.550293 3072.818848,683.999817 3069.681885,674.298340 
	C3068.424805,670.411133 3065.534180,666.823792 3065.158691,662.929138 
	C3064.460938,655.689270 3065.062988,648.324036 3065.498291,640.840027 
	C3065.746094,640.694885 3065.917969,640.486816 3066.941406,640.088623 
	C3111.526855,640.088623 3156.112305,640.088623 3201.000488,640.088623 
	C3201.000488,612.065308 3201.026611,584.604187 3200.916748,557.143555 
	C3200.911377,555.888000 3199.937500,554.383362 3198.983643,553.422546 
	C3183.961914,538.288208 3168.898926,523.194031 3153.732666,508.204803 
	C3152.595459,507.080994 3150.605957,506.248962 3149.010010,506.244690 
	C3118.021729,506.161957 3087.033203,506.222839 3055.500732,506.052002 
	C3055.320068,506.121002 3055.139404,506.189972 3054.293945,506.258514 
M2302.199951,698.620850 
	C2317.403076,713.816406 2332.547607,729.072144 2347.894531,744.121155 
	C2349.556152,745.750366 2352.385254,747.032104 2354.680664,747.044922 
	C2387.844482,747.230530 2421.010010,747.220581 2454.174072,747.058105 
	C2456.358154,747.047363 2459.081787,745.981628 2460.629150,744.463501 
	C2475.377930,729.994263 2489.976318,715.369995 2504.454590,700.629883 
	C2505.872314,699.186523 2506.918945,696.672974 2506.925293,694.652466 
	C2507.064697,649.322021 2507.061523,603.990906 2506.937988,558.660400 
	C2506.932617,556.776306 2505.980713,554.424438 2504.662354,553.086304 
	C2489.926025,538.130066 2475.063965,523.296570 2460.117188,508.550201 
	C2458.859131,507.308929 2456.746582,506.263062 2455.027832,506.258270 
	C2421.031738,506.163330 2387.035400,506.235718 2352.405273,506.042999 
	C2351.823975,506.275299 2351.242920,506.507599 2350.085693,507.061981 
	C2335.250244,521.891296 2320.481689,536.788330 2305.519043,551.488098 
	C2302.801758,554.157715 2301.760254,556.826538 2301.767578,560.605469 
	C2301.856689,606.054810 2301.782715,651.504395 2301.434814,697.164307 
	C2301.579346,697.453918 2301.723877,697.743469 2302.199951,698.620850 
M1557.500000,747.171631 
	C1565.905518,747.171631 1574.310913,747.171631 1583.248291,747.171631 
	C1577.800781,733.539246 1572.496338,720.666077 1567.563477,707.652100 
	C1566.246826,704.179016 1565.467407,700.276611 1565.456665,696.568359 
	C1565.320190,649.581482 1565.339233,602.594055 1565.433960,555.606995 
	C1565.440918,552.192261 1564.488770,549.776245 1562.005615,547.343994 
	C1549.152710,534.754822 1536.583496,521.875305 1523.690674,509.327911 
	C1521.925903,507.610382 1518.910400,506.318359 1516.460938,506.296600 
	C1491.636353,506.076111 1466.808960,506.146545 1441.982422,506.189484 
	C1440.184937,506.192596 1438.298096,506.340576 1436.605713,506.891388 
	C1424.613647,510.794098 1412.642334,514.764404 1400.723145,518.883057 
	C1399.382202,519.346375 1397.791504,520.660583 1397.357056,521.935059 
	C1391.613037,538.783691 1386.055542,555.695923 1380.281860,573.103455 
	C1388.371704,570.431702 1395.911621,568.022705 1403.396729,565.454529 
	C1427.229980,557.277405 1450.727295,547.444946 1476.863770,550.932373 
	C1477.027466,550.954163 1477.219482,550.881958 1477.359863,550.942627 
	C1484.430420,553.999512 1493.499146,555.324646 1498.060303,560.569275 
	C1503.857300,567.235107 1509.319580,576.065857 1506.517700,586.780090 
	C1495.582642,589.509705 1484.473267,592.206360 1473.406616,595.067627 
	C1463.130127,597.724609 1452.303223,599.245361 1442.768311,603.577087 
	C1420.706543,613.599670 1399.312134,625.085754 1377.558350,635.797974 
	C1374.609253,637.250305 1373.443481,638.815430 1373.467529,642.174866 
	C1373.623779,664.001099 1373.470093,685.829712 1373.659424,707.655457 
	C1373.678345,709.846069 1374.765991,712.550903 1376.284424,714.120422 
	C1386.246704,724.417175 1396.382324,734.551636 1406.685059,744.507568 
	C1408.242554,746.012573 1410.957520,747.028870 1413.151245,747.054260 
	C1430.644043,747.256653 1448.140869,747.238281 1465.634766,747.083252 
	C1468.169189,747.060791 1470.903931,746.383850 1473.188354,745.273743 
	C1486.747559,738.684875 1500.201538,731.879211 1514.056030,724.964233 
	C1516.414185,730.763550 1519.109497,736.132812 1520.745728,741.807434 
	C1522.096558,746.491333 1524.597534,747.431641 1529.010986,747.273743 
	C1538.163452,746.946289 1547.335815,747.172852 1557.500000,747.171631 
z"/>
<path fill="#9082CD" opacity="1.000000" stroke="none" 
	d="
M533.806824,202.819672 
	C534.063904,202.603729 534.321045,202.387787 535.100586,202.027893 
	C536.110657,201.874649 536.598145,201.865341 537.085693,201.856018 
	C537.983154,202.361923 538.880554,202.867828 539.676880,203.816055 
	C540.712952,206.308167 541.595642,208.557907 543.025085,210.378143 
	C570.454956,245.306168 597.991577,280.150330 625.415588,315.082947 
	C645.368835,340.499329 665.143066,366.056213 685.083557,391.482605 
	C710.343201,423.691620 735.690491,455.831879 760.900879,488.249725 
	C760.529419,488.956238 760.256958,489.414825 759.587219,489.928345 
	C688.350952,507.669342 617.512268,525.356506 546.672974,543.041199 
	C458.485596,565.056885 370.296631,587.065979 282.122131,609.132996 
	C280.972290,609.420715 280.003296,610.431152 278.960510,611.424744 
	C278.980499,612.172546 278.989868,612.599915 278.735992,612.906738 
	C277.979004,612.212158 277.485229,611.638062 276.988037,610.778687 
	C276.976227,610.303162 276.967804,610.113098 277.125549,609.627808 
	C277.602264,608.941223 277.952850,608.574890 278.217834,608.154663 
	C311.022552,556.122681 343.768372,504.053589 376.637634,452.062469 
	C399.644409,415.671387 422.862549,379.414001 445.907288,343.046814 
	C469.755005,305.412445 493.538330,267.737152 517.278687,230.034973 
	C522.933411,221.054733 528.304993,211.896194 533.806824,202.819672 
z"/>
<path fill="#C7BFE6" opacity="1.000000" stroke="none" 
	d="
M533.448730,202.852539 
	C528.304993,211.896194 522.933411,221.054733 517.278687,230.034973 
	C493.538330,267.737152 469.755005,305.412445 445.907288,343.046814 
	C422.862549,379.414001 399.644409,415.671387 376.637634,452.062469 
	C343.768372,504.053589 311.022552,556.122681 278.217834,608.154663 
	C277.952850,608.574890 277.602264,608.941223 276.840027,609.431885 
	C276.008331,608.794128 275.531158,608.090942 275.262054,607.315552 
	C263.521851,573.485107 251.806458,539.646057 240.073898,505.812988 
	C231.927505,482.321320 223.809326,458.819702 215.584000,435.355652 
	C210.875687,421.924500 205.978210,408.559601 201.165894,395.164886 
	C202.287521,393.882446 203.169205,392.183136 204.566162,391.379120 
	C232.937775,375.050354 261.405029,358.887787 289.775970,342.557922 
	C313.966827,328.634094 338.024353,314.478699 362.207428,300.541229 
	C385.959351,286.852325 409.817963,273.348572 433.587830,259.690552 
	C458.222534,245.535568 482.784637,231.254196 507.425568,217.110153 
	C515.907593,212.241425 524.531555,207.619873 533.448730,202.852539 
z"/>
<path fill="#7E6FC4" opacity="1.000000" stroke="none" 
	d="
M278.999237,613.027283 
	C278.989868,612.599915 278.980499,612.172546 279.292206,611.527710 
	C281.930511,612.610718 284.219482,613.964844 286.569305,615.203552 
	C318.333252,631.947815 350.114319,648.659729 381.873169,665.413635 
	C404.509857,677.355347 427.110413,689.365479 449.743408,701.314209 
	C480.478607,717.540283 511.212524,733.768799 541.978333,749.936707 
	C570.982727,765.178894 600.041809,780.317200 629.044617,795.562317 
	C636.102356,799.272034 643.033997,803.221497 650.014771,807.426880 
	C647.480347,811.619751 645.029236,815.498047 642.416443,819.264221 
	C629.672363,837.633972 616.966309,856.030945 604.088684,874.306885 
	C592.841125,890.269409 581.324646,906.042236 570.035706,921.975891 
	C560.080872,936.026733 550.237244,950.157227 540.457275,964.330261 
	C539.301331,966.005493 538.857971,968.172302 538.084290,970.111267 
	C538.084290,970.111267 537.989441,970.067505 537.719238,970.059448 
	C537.007507,970.437683 536.565918,970.824036 536.124390,971.210388 
	C536.124390,971.210388 536.060059,971.060608 535.765991,971.102539 
	C535.245239,971.198547 535.018494,971.252625 534.791687,971.306763 
	C534.791687,971.306763 534.742065,971.280762 534.765503,971.090576 
	C534.526611,970.959778 534.264221,971.019104 534.001892,971.078430 
	C533.043884,970.621948 532.085815,970.165527 531.220093,969.252075 
	C531.221313,968.065247 531.380310,967.154907 531.002747,966.631836 
	C520.130432,951.567627 509.129639,936.595764 498.304626,921.497803 
	C482.551788,899.527039 466.948151,877.449341 451.228607,855.454651 
	C428.657410,823.873108 406.004913,792.349670 383.452240,760.754883 
	C366.974945,737.671204 350.635437,714.489258 334.173523,691.394592 
	C320.117004,671.674438 305.923401,652.051819 291.898071,632.309570 
	C287.421265,626.007996 283.289093,619.461670 278.999237,613.027283 
z"/>
<path fill="#2C0548" opacity="1.000000" stroke="none" 
	d="
M2790.002197,425.788513 
	C2810.376221,425.841827 2830.750244,425.895172 2851.662109,426.223358 
	C2852.340576,426.737061 2852.540771,426.904755 2852.800781,427.001312 
	C2852.852783,429.829407 2852.949951,432.657532 2852.950195,435.485626 
	C2852.958252,519.100708 2853.189697,602.716980 2852.768555,686.329895 
	C2852.679688,703.984314 2854.347900,721.092957 2859.486816,737.922424 
	C2860.355713,740.768372 2860.830566,743.734619 2861.605957,747.170837 
	C2850.885742,747.170837 2840.439941,747.171265 2829.993896,747.170654 
	C2822.498535,747.170227 2814.999512,747.040161 2807.509277,747.234009 
	C2804.737061,747.305725 2803.324951,746.534546 2802.453857,743.796692 
	C2800.959229,739.099487 2799.023926,734.542664 2797.090820,729.445190 
	C2786.356445,734.791809 2776.061279,740.060181 2765.620117,745.020996 
	C2763.033936,746.249634 2759.979980,747.049683 2757.131348,747.078247 
	C2738.977783,747.260620 2720.820557,747.261719 2702.667480,747.054749 
	C2700.487793,747.029907 2697.791016,745.937561 2696.240234,744.416138 
	C2681.498535,729.953552 2666.901611,715.341370 2652.431152,700.607361 
	C2651.016846,699.167480 2650.024902,696.625427 2650.018799,694.591431 
	C2649.883545,649.453064 2649.871094,604.313904 2650.041748,559.175781 
	C2650.050293,556.884888 2651.358887,554.061523 2652.991455,552.397705 
	C2667.918213,537.183594 2683.051514,522.171753 2698.672852,506.979004 
	C2699.495850,506.659363 2699.770996,506.461578 2700.045898,506.263733 
	C2720.356445,506.229462 2740.667480,506.153076 2760.977539,506.230743 
	C2762.854980,506.237915 2764.855225,506.963806 2766.583252,507.800323 
	C2775.820312,512.271606 2784.989014,516.884216 2794.944824,521.826965 
	C2794.944824,519.807861 2794.944824,518.419312 2794.944824,517.030701 
	C2794.944092,511.036896 2794.670654,505.028595 2794.989746,499.051849 
	C2796.301270,474.477661 2794.104736,450.367218 2786.462891,426.513794 
	C2787.907715,425.971558 2788.954834,425.880035 2790.002197,425.788513 
M2710.020752,670.632690 
	C2710.300293,671.180603 2710.579590,671.728455 2710.965820,672.970032 
	C2713.172852,677.416016 2715.248535,681.934998 2717.655273,686.270142 
	C2718.555664,687.891907 2720.010986,689.426697 2721.581299,690.418579 
	C2730.738770,696.202576 2740.524658,699.633484 2751.620117,698.125366 
	C2754.391846,697.748535 2757.271729,697.887817 2760.078369,698.101440 
	C2769.240479,698.799194 2775.705566,692.508484 2783.330566,689.244751 
	C2783.972168,688.970215 2784.387207,687.989197 2784.745117,687.256836 
	C2787.863281,680.873779 2790.944336,674.472595 2794.521484,667.710632 
	C2794.619141,667.142517 2794.716797,666.574402 2794.925049,665.074097 
	C2794.931152,640.083496 2795.941162,615.031067 2794.407715,590.135254 
	C2793.859863,581.248230 2787.170166,572.732361 2783.209229,564.081360 
	C2782.988281,563.598450 2782.074219,563.447937 2781.503418,563.107849 
	C2772.057373,557.481445 2762.191895,553.608521 2750.848877,555.243103 
	C2748.400635,555.595886 2745.838867,555.495728 2743.362549,555.258911 
	C2733.943848,554.358154 2727.350586,560.943298 2719.495361,564.160217 
	C2718.861084,564.419861 2718.458008,565.419922 2718.100342,566.150574 
	C2715.697021,571.061829 2713.335693,575.993408 2710.397949,581.394470 
	C2710.332764,582.593384 2710.267578,583.792297 2710.076660,585.921997 
	C2710.116699,613.947510 2710.156982,641.973083 2710.020752,670.632690 
z"/>
<path fill="#2C0548" opacity="1.000000" stroke="none" 
	d="
M1023.232605,696.956726 
	C1023.197388,650.792358 1023.138794,604.627930 1023.217407,558.463806 
	C1023.220337,556.723511 1024.113159,554.550964 1025.334351,553.312500 
	C1040.194702,538.243042 1055.150757,523.266541 1070.234253,508.420715 
	C1071.565308,507.110626 1073.961426,506.270599 1075.871216,506.255005 
	C1095.036255,506.098145 1114.203369,506.107208 1133.368774,506.230438 
	C1135.589478,506.244690 1137.979370,506.867554 1139.990845,507.833221 
	C1148.830688,512.077209 1157.560425,516.550720 1166.744873,521.324036 
	C1167.460938,521.511169 1167.762207,521.315369 1168.063477,521.119507 
	C1168.063477,521.119446 1168.016724,521.054199 1168.245361,520.984985 
	C1168.542114,520.802124 1168.693115,520.653687 1168.662842,520.581055 
	C1168.569336,520.356995 1168.406494,520.161865 1168.270630,519.955505 
	C1168.241943,519.529724 1168.213257,519.104004 1168.387085,518.265503 
	C1168.480713,517.553345 1168.371582,517.254028 1168.262573,516.954651 
	C1168.229370,503.475281 1167.577026,489.961151 1168.330566,476.525909 
	C1169.142944,462.042206 1164.815308,448.645599 1161.629883,434.948608 
	C1161.066162,432.524567 1160.428589,430.117767 1159.739014,427.076294 
	C1159.730835,426.283020 1159.808838,426.116394 1159.886963,425.949799 
	C1159.886963,425.949799 1159.947754,425.992279 1160.224976,425.976440 
	C1160.671509,425.902222 1160.840942,425.843811 1161.010254,425.785400 
	C1182.028198,425.827606 1203.046265,425.869843 1224.769531,425.949890 
	C1225.647339,425.998444 1225.819702,426.009186 1225.992188,426.019897 
	C1226.055664,428.177826 1226.174561,430.335754 1226.174683,432.493683 
	C1226.180786,517.053772 1226.376953,601.614685 1226.005127,686.173218 
	C1225.929810,703.293823 1227.357178,719.937378 1232.401855,736.284668 
	C1233.465332,739.730347 1233.964233,743.350159 1234.112549,746.980164 
	C1233.318604,747.137024 1233.135254,747.203552 1232.951782,747.270020 
	C1215.655762,747.234741 1198.359375,747.133728 1181.064087,747.228577 
	C1178.150879,747.244568 1176.633057,746.541443 1175.740601,743.560852 
	C1174.368164,738.977478 1172.405518,734.570862 1170.446533,729.443298 
	C1164.263794,732.527893 1157.986450,735.093567 1152.301270,738.615356 
	C1140.881104,745.689575 1128.766968,748.138733 1115.376831,747.351013 
	C1101.619995,746.541748 1087.778198,747.176514 1073.263672,747.089905 
	C1072.371460,746.995972 1072.189087,746.991455 1072.006714,746.987000 
	C1056.020264,730.968323 1040.033691,714.949707 1023.935059,698.378784 
	C1023.626160,697.536560 1023.429382,697.246643 1023.232605,696.956726 
M1148.856934,693.294556 
	C1154.807129,691.221619 1159.062134,687.534546 1161.102905,681.333374 
	C1162.027100,678.525757 1164.086426,676.086609 1164.972656,673.272949 
	C1166.334717,668.948914 1167.947388,664.459961 1168.023193,660.016479 
	C1168.352783,640.701599 1167.724243,621.363770 1168.336548,602.062622 
	C1168.680542,591.225403 1165.784424,581.886780 1161.387329,572.113098 
	C1156.642090,561.565430 1147.277222,557.156311 1138.518555,555.994019 
	C1125.477539,554.263428 1111.649414,552.908752 1098.831787,560.755798 
	C1088.752563,566.926453 1084.161621,576.122498 1083.761597,586.333679 
	C1082.751831,612.110535 1083.763184,637.960022 1083.242554,663.765869 
	C1083.044922,673.564209 1088.715698,680.559692 1092.240356,688.638672 
	C1092.520020,689.279907 1093.489258,689.661133 1094.191895,690.070984 
	C1103.323853,695.398376 1112.637451,699.387817 1123.771240,698.232056 
	C1132.096558,697.367676 1140.798462,699.234863 1148.856934,693.294556 
z"/>
<path fill="#6B59BC" opacity="1.000000" stroke="none" 
	d="
M278.735992,612.906738 
	C283.289093,619.461670 287.421265,626.007996 291.898071,632.309570 
	C305.923401,652.051819 320.117004,671.674438 334.173523,691.394592 
	C350.635437,714.489258 366.974945,737.671204 383.452240,760.754883 
	C406.004913,792.349670 428.657410,823.873108 451.228607,855.454651 
	C466.948151,877.449341 482.551788,899.527039 498.304626,921.497803 
	C509.129639,936.595764 520.130432,951.567627 531.002747,966.631836 
	C531.380310,967.154907 531.221313,968.065247 531.038147,968.984009 
	C510.986847,957.883301 491.176300,946.651855 471.438477,935.294006 
	C382.938080,884.367676 294.458160,833.405701 205.972717,782.453369 
	C204.820236,781.789734 203.692200,781.083679 202.255630,779.822998 
	C202.091873,778.601990 202.112747,777.905273 202.374771,777.315796 
	C214.518280,749.999939 226.681122,722.692688 238.845490,695.386108 
	C247.022324,677.030884 255.152878,658.654785 263.405823,640.333801 
	C267.823334,630.527222 272.455963,620.817505 276.991516,611.064026 
	C277.485229,611.638062 277.979004,612.212158 278.735992,612.906738 
z"/>
<path fill="#2C0548" opacity="1.000000" stroke="none" 
	d="
M2301.751221,696.953979 
	C2301.782715,651.504395 2301.856689,606.054810 2301.767578,560.605469 
	C2301.760254,556.826538 2302.801758,554.157715 2305.519043,551.488098 
	C2320.481689,536.788330 2335.250244,521.891296 2350.688965,506.978912 
	C2351.874268,506.688568 2352.456787,506.481293 2353.039062,506.274078 
	C2387.035400,506.235718 2421.031738,506.163330 2455.027832,506.258270 
	C2456.746582,506.263062 2458.859131,507.308929 2460.117188,508.550201 
	C2475.063965,523.296570 2489.926025,538.130066 2504.662354,553.086304 
	C2505.980713,554.424438 2506.932617,556.776306 2506.937988,558.660400 
	C2507.061523,603.990906 2507.064697,649.322021 2506.925293,694.652466 
	C2506.918945,696.672974 2505.872314,699.186523 2504.454590,700.629883 
	C2489.976318,715.369995 2475.377930,729.994263 2460.629150,744.463501 
	C2459.081787,745.981628 2456.358154,747.047363 2454.174072,747.058105 
	C2421.010010,747.220581 2387.844482,747.230530 2354.680664,747.044922 
	C2352.385254,747.032104 2349.556152,745.750366 2347.894531,744.121155 
	C2332.547607,729.072144 2317.403076,713.816406 2302.082031,698.048828 
	C2301.893066,697.302429 2301.822021,697.128174 2301.751221,696.953979 
M2446.973633,582.500061 
	C2446.771973,582.193787 2446.570312,581.887512 2446.138428,580.914124 
	C2443.780029,576.153687 2441.514160,571.343567 2439.005371,566.663757 
	C2438.275879,565.303467 2437.041748,563.993286 2435.714355,563.209656 
	C2426.287109,557.644226 2416.525146,554.270752 2405.081787,555.031982 
	C2395.425537,555.674255 2386.235840,555.737427 2377.332520,560.802795 
	C2367.206299,566.564026 2362.741211,575.945007 2362.360840,585.920776 
	C2361.326904,613.036499 2361.958740,640.217957 2362.086914,667.372620 
	C2362.098877,669.901245 2363.100830,672.462341 2363.854736,674.943970 
	C2367.120117,685.689148 2374.200195,692.731445 2384.870361,696.117615 
	C2387.496338,696.951050 2390.218506,697.872681 2392.926758,697.978394 
	C2399.747070,698.244507 2406.617920,697.638916 2413.406738,698.172913 
	C2422.864502,698.916809 2429.466553,692.620178 2437.304199,689.387329 
	C2437.959229,689.117065 2438.425781,688.166748 2438.784424,687.436218 
	C2441.269531,682.373901 2443.702881,677.286072 2446.693359,671.841675 
	C2446.722656,671.218384 2446.751709,670.595154 2446.875000,669.042480 
	C2446.840332,640.375854 2446.805908,611.709229 2446.973633,582.500061 
z"/>
<path fill="#8779C8" opacity="1.000000" stroke="none" 
	d="
M759.984497,489.873413 
	C760.256958,489.414825 760.529419,488.956238 761.131714,488.365662 
	C761.671387,488.502167 761.881287,488.770721 762.104614,489.408447 
	C766.722290,502.223267 771.335693,514.665588 775.929077,527.115234 
	C788.846863,562.127502 801.730469,597.152466 814.675781,632.154480 
	C829.749939,672.912537 844.849854,713.661072 860.001465,754.390381 
	C862.818176,761.962219 865.932678,769.423218 868.909790,776.935364 
	C868.922180,777.396118 868.934570,777.856873 868.556396,778.682617 
	C867.798035,779.409546 867.430176,779.771484 867.062256,780.133423 
	C867.062256,780.133423 867.021545,780.033508 866.606812,780.030518 
	C853.559814,781.482849 840.916748,782.852051 828.297913,784.416199 
	C814.043152,786.183105 799.809326,788.119080 785.567871,789.992676 
	C773.945557,791.521667 762.327026,793.080017 750.703796,794.601807 
	C739.405396,796.080933 728.102783,797.527405 716.802673,798.993225 
	C705.176697,800.501221 693.559204,802.076843 681.923828,803.508301 
	C671.927856,804.738159 661.912048,805.806396 651.938721,806.561401 
	C657.261169,790.801819 662.541443,775.424133 667.840149,760.052795 
	C687.528687,702.937195 707.218933,645.822266 726.917480,588.710205 
	C736.876587,559.835815 746.890930,530.980469 756.782227,502.082947 
	C758.141113,498.112885 758.931152,493.948059 759.984497,489.873413 
z"/>
<path fill="#2C0548" opacity="1.000000" stroke="none" 
	d="
M3153.998779,698.222717 
	C3166.425293,694.098633 3178.852539,689.975769 3191.277588,685.847839 
	C3192.012451,685.603760 3192.734131,685.319336 3194.295898,684.749329 
	C3189.702881,698.455017 3185.353760,711.428589 3181.008057,724.403198 
	C3178.847412,730.854492 3176.596924,737.277954 3174.585449,743.775452 
	C3173.851562,746.146423 3172.905518,747.243652 3170.159180,747.236572 
	C3132.194824,747.139099 3094.229980,747.197083 3056.265625,747.082703 
	C3054.692871,747.078003 3052.757324,746.128723 3051.609375,744.993774 
	C3036.692139,730.247009 3021.844482,715.428894 3007.125488,700.484497 
	C3005.803223,699.141907 3004.825439,696.798584 3004.820312,694.916992 
	C3004.696289,649.459595 3004.709717,604.001770 3004.798096,558.544250 
	C3004.801270,556.895020 3005.342773,554.776062 3006.436523,553.670654 
	C3022.009766,537.928467 3037.720703,522.322754 3053.409668,506.695404 
	C3053.630371,506.475433 3053.995850,506.400879 3054.721680,506.419617 
	C3055.447754,506.471863 3055.746094,506.363037 3056.044678,506.254211 
	C3087.033203,506.222839 3118.021729,506.161957 3149.010010,506.244690 
	C3150.605957,506.248962 3152.595459,507.080994 3153.732666,508.204803 
	C3168.898926,523.194031 3183.961914,538.288208 3198.983643,553.422546 
	C3199.937500,554.383362 3200.911377,555.888000 3200.916748,557.143555 
	C3201.026611,584.604187 3201.000488,612.065308 3201.000488,640.088623 
	C3156.112305,640.088623 3111.526855,640.088623 3066.206543,640.090698 
	C3065.355469,640.398804 3065.239502,640.704895 3065.123779,641.010986 
	C3065.062988,648.324036 3064.460938,655.689270 3065.158691,662.929138 
	C3065.534180,666.823792 3068.424805,670.411133 3069.681885,674.298340 
	C3072.818848,683.999817 3079.540039,689.550293 3088.730713,693.569824 
	C3095.267090,696.428528 3101.459473,698.379150 3108.671875,698.184875 
	C3123.130859,697.795532 3137.608398,698.078369 3152.634277,698.300171 
	C3153.459961,698.418701 3153.729248,698.320740 3153.998779,698.222717 
M3127.489502,599.999634 
	C3131.583984,599.999634 3135.678467,599.999634 3140.069824,599.999634 
	C3139.245605,588.366028 3141.528320,577.396912 3135.586670,566.515198 
	C3130.344482,556.914368 3121.628662,553.131714 3113.045410,551.468750 
	C3101.924316,549.314087 3089.823730,549.298889 3079.615967,556.880798 
	C3077.651123,558.340088 3074.715576,558.958252 3073.439209,560.802673 
	C3065.253418,572.630737 3063.023682,585.793335 3065.577637,599.999634 
	C3085.935059,599.999634 3106.213623,599.999634 3127.489502,599.999634 
z"/>
<path fill="#2C0648" opacity="1.000000" stroke="none" 
	d="
M1557.000000,747.171631 
	C1547.335815,747.172852 1538.163452,746.946289 1529.010986,747.273743 
	C1524.597534,747.431641 1522.096558,746.491333 1520.745728,741.807434 
	C1519.109497,736.132812 1516.414185,730.763550 1514.056030,724.964233 
	C1500.201538,731.879211 1486.747559,738.684875 1473.188354,745.273743 
	C1470.903931,746.383850 1468.169189,747.060791 1465.634766,747.083252 
	C1448.140869,747.238281 1430.644043,747.256653 1413.151245,747.054260 
	C1410.957520,747.028870 1408.242554,746.012573 1406.685059,744.507568 
	C1396.382324,734.551636 1386.246704,724.417175 1376.284424,714.120422 
	C1374.765991,712.550903 1373.678345,709.846069 1373.659424,707.655457 
	C1373.470093,685.829712 1373.623779,664.001099 1373.467529,642.174866 
	C1373.443481,638.815430 1374.609253,637.250305 1377.558350,635.797974 
	C1399.312134,625.085754 1420.706543,613.599670 1442.768311,603.577087 
	C1452.303223,599.245361 1463.130127,597.724609 1473.406616,595.067627 
	C1484.473267,592.206360 1495.582642,589.509705 1506.517700,586.780090 
	C1509.319580,576.065857 1503.857300,567.235107 1498.060303,560.569275 
	C1493.499146,555.324646 1484.430420,553.999512 1477.359863,550.942627 
	C1477.219482,550.881958 1477.027466,550.954163 1476.863770,550.932373 
	C1450.727295,547.444946 1427.229980,557.277405 1403.396729,565.454529 
	C1395.911621,568.022705 1388.371704,570.431702 1380.281860,573.103455 
	C1386.055542,555.695923 1391.613037,538.783691 1397.357056,521.935059 
	C1397.791504,520.660583 1399.382202,519.346375 1400.723145,518.883057 
	C1412.642334,514.764404 1424.613647,510.794098 1436.605713,506.891388 
	C1438.298096,506.340576 1440.184937,506.192596 1441.982422,506.189484 
	C1466.808960,506.146545 1491.636353,506.076111 1516.460938,506.296600 
	C1518.910400,506.318359 1521.925903,507.610382 1523.690674,509.327911 
	C1536.583496,521.875305 1549.152710,534.754822 1562.005615,547.343994 
	C1564.488770,549.776245 1565.440918,552.192261 1565.433960,555.606995 
	C1565.339233,602.594055 1565.320190,649.581482 1565.456665,696.568359 
	C1565.467407,700.276611 1566.246826,704.179016 1567.563477,707.652100 
	C1572.496338,720.666077 1577.800781,733.539246 1583.248291,747.171631 
	C1574.310913,747.171631 1565.905518,747.171631 1557.000000,747.171631 
M1429.000854,671.660706 
	C1427.498657,679.738098 1432.283325,685.886475 1435.487915,692.494080 
	C1435.940674,693.427185 1437.066162,694.161682 1438.040894,694.693176 
	C1444.635010,698.288391 1451.263550,701.516846 1459.236450,700.386169 
	C1462.993530,699.853333 1466.897949,700.457581 1470.718262,700.240601 
	C1473.478027,700.083923 1476.475952,700.001221 1478.904663,698.881287 
	C1487.354248,694.984619 1495.547607,690.535156 1503.958740,686.549927 
	C1506.638550,685.280273 1507.424561,683.666870 1507.403198,680.810059 
	C1507.278442,664.147461 1507.353516,647.483459 1507.331299,630.819885 
	C1507.329590,629.589661 1507.093750,628.359680 1506.945312,626.922607 
	C1505.064941,627.366455 1503.609985,627.668823 1502.177490,628.054504 
	C1491.126465,631.030273 1479.801514,633.270813 1469.114746,637.232117 
	C1459.512939,640.791260 1450.685547,646.396912 1441.383667,650.820190 
	C1432.875732,654.866089 1430.875732,662.708801 1429.000854,671.660706 
z"/>
<path fill="#624FB8" opacity="1.000000" stroke="none" 
	d="
M762.091187,489.039246 
	C761.881287,488.770721 761.671387,488.502167 761.230713,488.117676 
	C735.690491,455.831879 710.343201,423.691620 685.083557,391.482605 
	C665.143066,366.056213 645.368835,340.499329 625.415588,315.082947 
	C597.991577,280.150330 570.454956,245.306168 543.025085,210.378143 
	C541.595642,208.557907 540.712952,206.308167 539.846130,204.075607 
	C575.680725,224.459229 611.259521,245.000320 646.805969,265.597321 
	C719.205261,307.548248 791.587708,349.528137 863.971436,391.505798 
	C865.551086,392.421936 867.063110,393.454742 868.415405,394.929810 
	C832.846436,426.630768 797.468811,457.835022 762.091187,489.039246 
z"/>
<path fill="#2D0649" opacity="1.000000" stroke="none" 
	d="
M1761.357910,508.410309 
	C1759.922241,518.539368 1758.444458,528.662903 1757.099609,538.804016 
	C1756.913452,540.208679 1757.135376,541.783325 1757.587158,543.139771 
	C1769.125122,577.779114 1780.771973,612.382324 1792.232056,647.047363 
	C1793.572388,651.101562 1793.936279,655.478516 1794.563354,658.724609 
	C1800.754272,639.843384 1807.072876,620.433899 1813.485718,601.055603 
	C1819.192993,583.809570 1824.748291,566.505615 1830.902466,549.418823 
	C1833.223267,542.975159 1832.409058,536.847046 1831.632690,530.524536 
	C1830.661011,522.609497 1829.604858,514.704834 1828.538696,506.434113 
	C1853.979492,506.434113 1878.751587,506.434113 1903.777954,506.434113 
	C1903.747314,506.926483 1903.911255,507.638428 1903.644531,508.102966 
	C1883.266724,543.584778 1873.321289,583.096863 1860.089478,621.315063 
	C1846.023071,661.943604 1832.586548,702.790222 1818.866821,743.538757 
	C1818.498779,744.631653 1818.037354,745.693054 1817.546143,746.958069 
	C1801.269043,746.958069 1784.981445,746.958069 1768.420654,746.958069 
	C1761.661865,726.993896 1754.897095,707.061707 1748.166138,687.117981 
	C1737.828979,656.489441 1727.507690,625.855469 1717.195190,595.218628 
	C1712.762085,582.048950 1708.926147,568.644653 1703.808472,555.747864 
	C1698.002808,541.117310 1691.071045,526.933228 1684.613037,512.562073 
	C1683.747070,510.635010 1682.788818,508.749390 1681.554321,506.180725 
	C1708.162354,506.180725 1734.072021,506.180725 1760.441406,506.623718 
	C1761.053467,507.514587 1761.205688,507.962433 1761.357910,508.410309 
z"/>
<path fill="#2C0648" opacity="1.000000" stroke="none" 
	d="
M2065.045410,506.262695 
	C2095.373535,506.231110 2125.701904,506.199524 2156.604004,506.427979 
	C2157.424316,506.904083 2157.711182,507.000702 2158.038574,506.977966 
	C2164.635010,526.292114 2171.241211,545.602905 2177.795166,564.931458 
	C2178.090576,565.803284 2177.914551,566.835083 2177.984131,568.361328 
	C2166.404297,564.498108 2155.328125,560.648071 2144.139404,557.160156 
	C2140.563965,556.045532 2136.699219,555.470459 2132.949219,555.378052 
	C2123.122559,555.135803 2113.282959,555.153809 2103.455811,555.383667 
	C2100.578369,555.450928 2097.655518,556.360168 2094.873291,557.255554 
	C2084.238281,560.678162 2077.074463,567.664917 2073.859131,578.458191 
	C2073.072754,581.097412 2072.074463,583.825378 2072.057861,586.518005 
	C2071.915039,609.681580 2072.108154,632.847656 2071.884033,656.010010 
	C2071.825684,662.010071 2073.532471,667.155884 2075.719971,672.658447 
	C2079.907715,683.192932 2086.602539,690.133545 2097.251953,694.298157 
	C2102.936279,696.521118 2108.289307,697.890381 2114.389160,698.230225 
	C2131.121338,699.162476 2147.122559,696.876282 2162.572266,690.273438 
	C2167.343262,688.234375 2172.494873,687.085632 2178.867920,685.092712 
	C2177.305176,689.768860 2176.229248,692.989075 2175.152588,696.209106 
	C2169.888184,711.955750 2164.535400,727.673767 2159.438477,743.474426 
	C2158.493164,746.405151 2157.150391,747.246399 2154.168457,747.235718 
	C2124.171875,747.128113 2094.174072,747.220825 2064.177734,747.062500 
	C2062.155273,747.051880 2059.651367,745.965515 2058.198975,744.537476 
	C2043.467163,730.052795 2028.857910,715.441833 2014.377930,700.705383 
	C2012.953613,699.255554 2011.891602,696.737061 2011.885376,694.710938 
	C2011.747437,649.382324 2011.748047,604.053101 2011.891968,558.724548 
	C2011.898560,556.701782 2013.007324,554.196533 2014.439941,552.739380 
	C2028.926758,538.005249 2043.558838,523.413147 2058.251953,508.884064 
	C2059.540527,507.609711 2061.549805,507.064056 2063.685547,506.390808 
	C2064.446045,506.488678 2064.745850,506.375671 2065.045410,506.262695 
z"/>
<path fill="#4630AC" opacity="1.000000" stroke="none" 
	d="
M762.104614,489.408417 
	C797.468811,457.835022 832.846436,426.630768 868.489807,395.256775 
	C868.836609,396.412201 868.988586,397.737396 868.988647,399.062561 
	C868.995056,524.711548 868.989990,650.360474 868.947632,776.472412 
	C865.932678,769.423218 862.818176,761.962219 860.001465,754.390381 
	C844.849854,713.661072 829.749939,672.912537 814.675781,632.154480 
	C801.730469,597.152466 788.846863,562.127502 775.929077,527.115234 
	C771.335693,514.665588 766.722290,502.223267 762.104614,489.408417 
z"/>
<path fill="#9083CD" opacity="1.000000" stroke="none" 
	d="
M651.904968,806.946106 
	C661.912048,805.806396 671.927856,804.738159 681.923828,803.508301 
	C693.559204,802.076843 705.176697,800.501221 716.802673,798.993225 
	C728.102783,797.527405 739.405396,796.080933 750.703796,794.601807 
	C762.327026,793.080017 773.945557,791.521667 785.567871,789.992676 
	C799.809326,788.119080 814.043152,786.183105 828.297913,784.416199 
	C840.916748,782.852051 853.559814,781.482849 866.650391,780.062378 
	C857.572632,785.799866 848.107239,791.625061 838.489136,797.185913 
	C767.747192,838.086670 696.984741,878.951965 626.206909,919.790405 
	C597.095154,936.587830 567.929565,953.291748 538.436401,970.074768 
	C538.857971,968.172302 539.301331,966.005493 540.457275,964.330261 
	C550.237244,950.157227 560.080872,936.026733 570.035706,921.975891 
	C581.324646,906.042236 592.841125,890.269409 604.088684,874.306885 
	C616.966309,856.030945 629.672363,837.633972 642.416443,819.264221 
	C645.029236,815.498047 647.480347,811.619751 650.328308,807.402222 
	C651.068726,806.989563 651.486877,806.967834 651.904968,806.946106 
z"/>
<path fill="#A197D4" opacity="1.000000" stroke="none" 
	d="
M276.988068,610.778687 
	C272.455963,620.817505 267.823334,630.527222 263.405823,640.333801 
	C255.152878,658.654785 247.022324,677.030884 238.845490,695.386108 
	C226.681122,722.692688 214.518280,749.999939 202.374771,777.315796 
	C202.112747,777.905273 202.091873,778.601990 201.971054,779.633911 
	C201.655045,778.831482 201.039017,777.643860 201.038803,776.456177 
	C201.014587,649.659302 201.036560,522.862366 201.110886,395.615173 
	C205.978210,408.559601 210.875687,421.924500 215.584000,435.355652 
	C223.809326,458.819702 231.927505,482.321320 240.073898,505.812988 
	C251.806458,539.646057 263.521851,573.485107 275.262054,607.315552 
	C275.531158,608.090942 276.008331,608.794128 276.673920,609.726990 
	C276.967804,610.113098 276.976227,610.303162 276.988068,610.778687 
z"/>
<path fill="#E3E1E6" opacity="1.000000" stroke="none" 
	d="
M2789.755371,425.561279 
	C2788.954834,425.880035 2787.907715,425.971558 2786.469971,426.126099 
	C2787.222412,425.904114 2788.365479,425.619110 2789.755371,425.561279 
z"/>
<path fill="#C7BFE6" opacity="1.000000" stroke="none" 
	d="
M536.912048,201.643555 
	C536.598145,201.865341 536.110657,201.874649 535.259155,201.832031 
	C535.509583,201.663757 536.123962,201.547409 536.912048,201.643555 
z"/>
<path fill="#5F4574" opacity="1.000000" stroke="none" 
	d="
M2352.722168,506.158508 
	C2352.456787,506.481293 2351.874268,506.688568 2350.976807,506.817871 
	C2351.242920,506.507599 2351.823975,506.275299 2352.722168,506.158508 
z"/>
<path fill="#5F4574" opacity="1.000000" stroke="none" 
	d="
M1761.562256,508.191772 
	C1761.205688,507.962433 1761.053467,507.514587 1760.895630,506.710052 
	C1761.182251,506.893341 1761.474365,507.433319 1761.562256,508.191772 
z"/>
<path fill="#9083CD" opacity="1.000000" stroke="none" 
	d="
M867.340149,780.102295 
	C867.430176,779.771484 867.798035,779.409546 868.437317,779.010498 
	C868.345215,779.339417 867.981628,779.705322 867.340149,780.102295 
z"/>
<path fill="#9083CD" opacity="1.000000" stroke="none" 
	d="
M536.423950,971.172241 
	C536.565918,970.824036 537.007507,970.437683 537.770630,970.067139 
	C537.635986,970.433350 537.179749,970.783691 536.423950,971.172241 
z"/>
<path fill="#5F4574" opacity="1.000000" stroke="none" 
	d="
M1023.135315,697.229004 
	C1023.429382,697.246643 1023.626160,697.536560 1023.773804,698.091125 
	C1023.495789,698.070923 1023.266907,697.786133 1023.135315,697.229004 
z"/>
<path fill="#CCBFD0" opacity="1.000000" stroke="none" 
	d="
M2301.593018,697.059143 
	C2301.822021,697.128174 2301.893066,697.302429 2301.916504,697.754883 
	C2301.723877,697.743469 2301.579346,697.453918 2301.593018,697.059143 
z"/>
<path fill="#3D1B57" opacity="1.000000" stroke="none" 
	d="
M3153.750732,698.143188 
	C3153.729248,698.320740 3153.459961,698.418701 3153.098633,698.370483 
	C3153.172363,698.170654 3153.337646,698.117065 3153.750732,698.143188 
z"/>
<path fill="#CCBFD0" opacity="1.000000" stroke="none" 
	d="
M1072.062256,747.170532 
	C1072.189087,746.991455 1072.371460,746.995972 1072.798950,747.121948 
	C1072.735229,747.280396 1072.426514,747.317261 1072.062256,747.170532 
z"/>
<path fill="#CCBFD0" opacity="1.000000" stroke="none" 
	d="
M1233.046631,747.434265 
	C1233.135254,747.203552 1233.318604,747.137024 1233.775391,747.174438 
	C1233.746460,747.385010 1233.444092,747.491760 1233.046631,747.434265 
z"/>
<path fill="#9083CD" opacity="1.000000" stroke="none" 
	d="
M534.160034,971.190735 
	C534.264221,971.019104 534.526611,970.959778 534.747314,971.111877 
	C534.705688,971.323364 534.318237,971.303040 534.160034,971.190735 
z"/>
<path fill="#9083CD" opacity="1.000000" stroke="none" 
	d="
M534.924683,971.507935 
	C535.018494,971.252625 535.245239,971.198547 535.822327,971.161499 
	C535.801086,971.355347 535.429382,971.532227 534.924683,971.507935 
z"/>
<path fill="#E3E1E6" opacity="1.000000" stroke="none" 
	d="
M3065.311035,640.925537 
	C3065.239502,640.704895 3065.355469,640.398804 3065.742676,640.154358 
	C3065.917969,640.486816 3065.746094,640.694885 3065.311035,640.925537 
z"/>
<path fill="#5F4574" opacity="1.000000" stroke="none" 
	d="
M1167.788574,521.168945 
	C1167.762207,521.315369 1167.460938,521.511169 1167.058716,521.492310 
	C1167.143066,521.257812 1167.328369,521.238037 1167.788574,521.168945 
z"/>
<path fill="#5F4574" opacity="1.000000" stroke="none" 
	d="
M1168.155396,520.216797 
	C1168.406494,520.161865 1168.569336,520.356995 1168.662842,520.581055 
	C1168.693115,520.653687 1168.542114,520.802124 1168.285278,520.981079 
	C1168.077759,520.856995 1168.058960,520.667542 1168.155396,520.216797 
z"/>
<path fill="#5F4574" opacity="1.000000" stroke="none" 
	d="
M1168.159424,517.226685 
	C1168.371582,517.254028 1168.480713,517.553345 1168.427490,517.947266 
	C1168.195557,517.860840 1168.125977,517.679810 1168.159424,517.226685 
z"/>
<path fill="#5F4574" opacity="1.000000" stroke="none" 
	d="
M3055.772705,506.153107 
	C3055.746094,506.363037 3055.447754,506.471863 3055.053955,506.419830 
	C3055.139404,506.189972 3055.320068,506.121002 3055.772705,506.153107 
z"/>
<path fill="#5F4574" opacity="1.000000" stroke="none" 
	d="
M2699.778809,506.162842 
	C2699.770996,506.461578 2699.495850,506.659363 2698.962891,506.821564 
	C2698.973633,506.544647 2699.242676,506.303314 2699.778809,506.162842 
z"/>
<path fill="#5F4574" opacity="1.000000" stroke="none" 
	d="
M2157.998535,506.697510 
	C2157.711182,507.000702 2157.424316,506.904083 2157.066406,506.484528 
	C2157.289307,506.326385 2157.624023,506.371735 2157.998535,506.697510 
z"/>
<path fill="#5F4574" opacity="1.000000" stroke="none" 
	d="
M2064.772461,506.164307 
	C2064.745850,506.375671 2064.446045,506.488678 2064.052246,506.437561 
	C2064.138672,506.204254 2064.319336,506.135101 2064.772461,506.164307 
z"/>
<path fill="#3D1B57" opacity="1.000000" stroke="none" 
	d="
M2852.889648,426.791504 
	C2852.540771,426.904755 2852.340576,426.737061 2852.126465,426.313202 
	C2852.053223,426.128174 2851.860107,425.997528 2852.144531,425.998169 
	C2852.600098,426.041718 2852.770996,426.084625 2852.941895,426.127533 
	C2852.941895,426.127533 2852.978516,426.581726 2852.889648,426.791504 
z"/>
<path fill="#E3E1E6" opacity="1.000000" stroke="none" 
	d="
M1159.685791,425.976105 
	C1159.808838,426.116394 1159.730835,426.283020 1159.548340,426.704956 
	C1159.356812,426.730072 1159.242188,426.504700 1159.200317,426.266510 
	C1159.188110,426.197266 1159.384155,426.091461 1159.685791,425.976105 
z"/>
<path fill="#E3E1E6" opacity="1.000000" stroke="none" 
	d="
M2852.912598,425.935303 
	C2852.770996,426.084625 2852.600098,426.041718 2852.187988,425.890015 
	C2852.259033,425.768524 2852.571289,425.755798 2852.912598,425.935303 
z"/>
<path fill="#E3E1E6" opacity="1.000000" stroke="none" 
	d="
M1225.938477,425.840240 
	C1225.819702,426.009186 1225.647339,425.998444 1225.234497,425.890808 
	C1225.291016,425.749481 1225.587769,425.705048 1225.938477,425.840240 
z"/>
<path fill="#E3E1E6" opacity="1.000000" stroke="none" 
	d="
M1160.897705,425.639221 
	C1160.840942,425.843811 1160.671509,425.902222 1160.234131,425.940521 
	C1160.239258,425.777954 1160.512207,425.635468 1160.897705,425.639221 
z"/>
<path fill="#5945B4" opacity="1.000000" stroke="none" 
	d="
M651.938721,806.561401 
	C651.486877,806.967834 651.068726,806.989563 650.337158,807.036011 
	C643.033997,803.221497 636.102356,799.272034 629.044617,795.562317 
	C600.041809,780.317200 570.982727,765.178894 541.978333,749.936707 
	C511.212524,733.768799 480.478607,717.540283 449.743408,701.314209 
	C427.110413,689.365479 404.509857,677.355347 381.873169,665.413635 
	C350.114319,648.659729 318.333252,631.947815 286.569305,615.203552 
	C284.219482,613.964844 281.930511,612.610718 279.281555,611.207275 
	C280.003296,610.431152 280.972290,609.420715 282.122131,609.132996 
	C370.296631,587.065979 458.485596,565.056885 546.672974,543.041199 
	C617.512268,525.356506 688.350952,507.669342 759.587219,489.928345 
	C758.931152,493.948059 758.141113,498.112885 756.782227,502.082947 
	C746.890930,530.980469 736.876587,559.835815 726.917480,588.710205 
	C707.218933,645.822266 687.528687,702.937195 667.840149,760.052795 
	C662.541443,775.424133 657.261169,790.801819 651.938721,806.561401 
z"/>
<path fill="#FFFFFF" opacity="1.000000" stroke="none" 
	d="
M2794.036133,668.076782 
	C2790.944336,674.472595 2787.863281,680.873779 2784.745117,687.256836 
	C2784.387207,687.989197 2783.972168,688.970215 2783.330566,689.244751 
	C2775.705566,692.508484 2769.240479,698.799194 2760.078369,698.101440 
	C2757.271729,697.887817 2754.391846,697.748535 2751.620117,698.125366 
	C2740.524658,699.633484 2730.738770,696.202576 2721.581299,690.418579 
	C2720.010986,689.426697 2718.555664,687.891907 2717.655273,686.270142 
	C2715.248535,681.934998 2713.172852,677.416016 2710.958984,672.310486 
	C2710.700684,671.100159 2710.448730,670.549377 2710.197021,669.998596 
	C2710.156982,641.973083 2710.116699,613.947510 2710.375488,585.191223 
	C2710.769531,583.279785 2710.864990,582.099060 2710.960449,580.918335 
	C2713.335693,575.993408 2715.697021,571.061829 2718.100342,566.150574 
	C2718.458008,565.419922 2718.861084,564.419861 2719.495361,564.160217 
	C2727.350586,560.943298 2733.943848,554.358154 2743.362549,555.258911 
	C2745.838867,555.495728 2748.400635,555.595886 2750.848877,555.243103 
	C2762.191895,553.608521 2772.057373,557.481445 2781.503418,563.107849 
	C2782.074219,563.447937 2782.988281,563.598450 2783.209229,564.081360 
	C2787.170166,572.732361 2793.859863,581.248230 2794.407715,590.135254 
	C2795.941162,615.031067 2794.931152,640.083496 2794.653809,665.739258 
	C2794.266846,666.961792 2794.151611,667.519287 2794.036133,668.076782 
z"/>
<path fill="#E3E1E6" opacity="1.000000" stroke="none" 
	d="
M2710.679199,581.156372 
	C2710.864990,582.099060 2710.769531,583.279785 2710.437988,584.725830 
	C2710.267578,583.792297 2710.332764,582.593384 2710.679199,581.156372 
z"/>
<path fill="#E3E1E6" opacity="1.000000" stroke="none" 
	d="
M2710.108887,670.315674 
	C2710.448730,670.549377 2710.700684,671.100159 2710.905762,671.963623 
	C2710.579590,671.728455 2710.300293,671.180603 2710.108887,670.315674 
z"/>
<path fill="#E3E1E6" opacity="1.000000" stroke="none" 
	d="
M2794.278809,667.893677 
	C2794.151611,667.519287 2794.266846,666.961792 2794.598389,666.205322 
	C2794.716797,666.574402 2794.619141,667.142517 2794.278809,667.893677 
z"/>
<path fill="#FEFEFE" opacity="1.000000" stroke="none" 
	d="
M1148.543213,693.498413 
	C1140.798462,699.234863 1132.096558,697.367676 1123.771240,698.232056 
	C1112.637451,699.387817 1103.323853,695.398376 1094.191895,690.070984 
	C1093.489258,689.661133 1092.520020,689.279907 1092.240356,688.638672 
	C1088.715698,680.559692 1083.044922,673.564209 1083.242554,663.765869 
	C1083.763184,637.960022 1082.751831,612.110535 1083.761597,586.333679 
	C1084.161621,576.122498 1088.752563,566.926453 1098.831787,560.755798 
	C1111.649414,552.908752 1125.477539,554.263428 1138.518555,555.994019 
	C1147.277222,557.156311 1156.642090,561.565430 1161.387329,572.113098 
	C1165.784424,581.886780 1168.680542,591.225403 1168.336548,602.062622 
	C1167.724243,621.363770 1168.352783,640.701599 1168.023193,660.016479 
	C1167.947388,664.459961 1166.334717,668.948914 1164.972656,673.272949 
	C1164.086426,676.086609 1162.027100,678.525757 1161.102905,681.333374 
	C1159.062134,687.534546 1154.807129,691.221619 1148.543213,693.498413 
z"/>
<path fill="#FFFEFE" opacity="1.000000" stroke="none" 
	d="
M2446.152832,672.206421 
	C2443.702881,677.286072 2441.269531,682.373901 2438.784424,687.436218 
	C2438.425781,688.166748 2437.959229,689.117065 2437.304199,689.387329 
	C2429.466553,692.620178 2422.864502,698.916809 2413.406738,698.172913 
	C2406.617920,697.638916 2399.747070,698.244507 2392.926758,697.978394 
	C2390.218506,697.872681 2387.496338,696.951050 2384.870361,696.117615 
	C2374.200195,692.731445 2367.120117,685.689148 2363.854736,674.943970 
	C2363.100830,672.462341 2362.098877,669.901245 2362.086914,667.372620 
	C2361.958740,640.217957 2361.326904,613.036499 2362.360840,585.920776 
	C2362.741211,575.945007 2367.206299,566.564026 2377.332520,560.802795 
	C2386.235840,555.737427 2395.425537,555.674255 2405.081787,555.031982 
	C2416.525146,554.270752 2426.287109,557.644226 2435.714355,563.209656 
	C2437.041748,563.993286 2438.275879,565.303467 2439.005371,566.663757 
	C2441.514160,571.343567 2443.780029,576.153687 2446.178223,581.514099 
	C2446.402588,582.423584 2446.587158,582.733093 2446.771484,583.042603 
	C2446.805908,611.709229 2446.840332,640.375854 2446.615967,669.730286 
	C2446.288818,671.014221 2446.220703,671.610291 2446.152832,672.206421 
z"/>
<path fill="#CCBFD0" opacity="1.000000" stroke="none" 
	d="
M2446.423096,672.024048 
	C2446.220703,671.610291 2446.288818,671.014221 2446.568848,670.194946 
	C2446.751709,670.595154 2446.722656,671.218384 2446.423096,672.024048 
z"/>
<path fill="#CCBFD0" opacity="1.000000" stroke="none" 
	d="
M2446.872559,582.771362 
	C2446.587158,582.733093 2446.402588,582.423584 2446.293457,581.847656 
	C2446.570312,581.887512 2446.771973,582.193787 2446.872559,582.771362 
z"/>
<path fill="#FEFEFE" opacity="1.000000" stroke="none" 
	d="
M3126.990723,599.999634 
	C3106.213623,599.999634 3085.935059,599.999634 3065.577637,599.999634 
	C3063.023682,585.793335 3065.253418,572.630737 3073.439209,560.802673 
	C3074.715576,558.958252 3077.651123,558.340088 3079.615967,556.880798 
	C3089.823730,549.298889 3101.924316,549.314087 3113.045410,551.468750 
	C3121.628662,553.131714 3130.344482,556.914368 3135.586670,566.515198 
	C3141.528320,577.396912 3139.245605,588.366028 3140.069824,599.999634 
	C3135.678467,599.999634 3131.583984,599.999634 3126.990723,599.999634 
z"/>
<path fill="#FEFEFE" opacity="1.000000" stroke="none" 
	d="
M1429.001221,671.203369 
	C1430.875732,662.708801 1432.875732,654.866089 1441.383667,650.820190 
	C1450.685547,646.396912 1459.512939,640.791260 1469.114746,637.232117 
	C1479.801514,633.270813 1491.126465,631.030273 1502.177490,628.054504 
	C1503.609985,627.668823 1505.064941,627.366455 1506.945312,626.922607 
	C1507.093750,628.359680 1507.329590,629.589661 1507.331299,630.819885 
	C1507.353516,647.483459 1507.278442,664.147461 1507.403198,680.810059 
	C1507.424561,683.666870 1506.638550,685.280273 1503.958740,686.549927 
	C1495.547607,690.535156 1487.354248,694.984619 1478.904663,698.881287 
	C1476.475952,700.001221 1473.478027,700.083923 1470.718262,700.240601 
	C1466.897949,700.457581 1462.993530,699.853333 1459.236450,700.386169 
	C1451.263550,701.516846 1444.635010,698.288391 1438.040894,694.693176 
	C1437.066162,694.161682 1435.940674,693.427185 1435.487915,692.494080 
	C1432.283325,685.886475 1427.498657,679.738098 1429.001221,671.203369 
z"/>
</svg>