<svg version="1.1" id="Layer_1" xmlns="http://www.w3.org/2000/svg" xmlns:xlink="http://www.w3.org/1999/xlink" x="0px" y="0px"
	 width="100%" viewBox="0 0 512 512" enable-background="new 0 0 512 512" xml:space="preserve">
<path fill="#E8B691" opacity="1.000000" stroke="none" 
	d="
M1.000001,289.000000 
	C1.000000,267.645782 1.000000,246.291550 1.317129,224.807419 
	C2.451445,221.444794 3.268632,218.212051 4.547656,214.960556 
	C173.310104,214.953064 341.610718,214.964340 509.951172,215.398499 
	C510.328766,218.142624 510.522949,220.499039 511.078308,222.766998 
	C511.286499,223.617218 512.334717,224.261719 513.000000,225.000000 
	C513.000000,246.020889 513.000000,267.041779 512.669006,288.191162 
	C511.894714,289.152832 511.232880,289.938751 511.040710,290.826324 
	C508.031128,304.726562 505.631927,318.786011 501.983093,332.514038 
	C497.188141,350.554138 489.398376,367.433258 480.113251,383.663086 
	C470.795471,399.949982 460.212830,415.312134 447.377380,428.965607 
	C439.110016,437.759857 430.369934,446.183838 421.220062,454.050720 
	C413.997131,460.260834 405.826263,465.368347 398.044617,470.498840 
	C398.008820,431.114899 398.007202,392.197601 397.993195,353.280334 
	C397.992554,351.454041 398.095642,349.589905 397.780334,347.808960 
	C396.988495,343.336334 393.094696,340.116028 388.672089,340.028534 
	C384.062897,339.937347 379.968842,343.275726 379.182556,347.953308 
	C378.909668,349.576508 379.008728,351.268799 379.005249,352.929688 
	C378.948669,379.870850 378.902893,406.811981 378.597534,433.547791 
	C367.498383,409.870972 356.656403,386.399475 345.884430,362.468964 
	C345.969727,328.192566 345.988159,294.375244 345.988373,260.557892 
	C345.988403,259.232727 346.309204,257.503204 345.622772,256.662476 
	C343.938934,254.600235 341.947083,251.832825 339.714874,251.444778 
	C337.493073,251.058548 334.276550,252.683884 332.533813,254.450668 
	C331.189819,255.813171 331.068695,258.757904 331.058533,261.002106 
	C330.954376,283.990906 330.984131,306.980316 330.645752,329.827240 
	C329.208679,325.563477 326.359680,324.903412 322.431763,324.918030 
	C285.399811,325.055634 248.366669,325.089355 211.335312,324.886993 
	C206.685013,324.861572 203.028915,325.342896 201.022888,329.502563 
	C201.014145,305.881439 201.037018,282.727325 200.973389,259.573456 
	C200.959351,254.467178 198.069321,251.211151 193.791443,251.036728 
	C189.474319,250.860687 186.047562,254.106232 186.045471,258.985809 
	C186.030594,293.629822 186.125259,328.273865 186.078949,363.272644 
	C174.303970,388.840881 162.641586,414.057404 150.942215,439.256744 
	C150.480438,440.251343 149.666061,441.082245 149.017059,441.520752 
	C149.012222,411.256989 149.017853,381.461884 148.992111,351.666748 
	C148.985870,344.432861 145.379349,340.051666 139.541245,340.022217 
	C133.701309,339.992767 130.009705,344.397217 130.008652,351.578125 
	C130.002426,394.356140 130.023666,437.134155 129.684601,479.865601 
	C103.721573,464.568573 80.921432,446.032928 61.568493,423.207733 
	C49.518162,408.995300 38.848343,393.851013 30.239761,377.442657 
	C15.997219,350.295715 6.352898,321.536774 2.918749,290.888214 
	C2.841165,290.195831 1.664165,289.626648 1.000001,289.000000 
z"/>
<path fill="#E8B691" opacity="1.000000" stroke="none" 
	d="
M225.000000,0.999999 
	C246.020889,1.000000 267.041779,1.000000 288.187622,1.328750 
	C289.144958,2.102204 289.929779,2.766637 290.816864,2.958736 
	C304.727783,5.971103 318.811920,8.329867 332.533295,12.034936 
	C350.542633,16.897854 367.455170,24.612196 383.704773,33.879253 
	C399.319183,42.784081 414.033325,52.957684 427.299286,64.976921 
	C449.293671,84.904289 468.077820,107.543449 481.986694,134.200348 
	C479.018829,143.500626 476.216278,152.455063 473.044769,162.588333 
	C466.224670,149.686493 459.926880,137.772675 453.316254,125.267113 
	C446.303619,134.354416 439.741547,142.857864 432.751953,151.269592 
	C429.213684,150.751389 426.102936,150.324875 422.823212,149.555023 
	C421.160126,141.762512 419.666046,134.313354 417.962830,125.821579 
	C414.385895,133.715149 411.337036,140.443359 407.913574,147.013367 
	C394.673523,143.931488 383.279663,138.298523 372.877106,130.000351 
	C367.115906,125.404617 360.277161,121.610603 353.320984,119.184509 
	C341.440216,115.040909 329.085052,112.257484 316.951111,108.458260 
	C316.684265,104.542633 316.575562,101.045494 316.078430,97.604454 
	C311.670593,67.093285 283.653320,44.895641 252.416901,47.096745 
	C222.153214,49.229305 197.399887,75.489990 196.972824,105.700745 
	C196.774612,119.722641 201.441147,132.079269 208.751862,143.735840 
	C207.201340,144.330811 205.911942,144.677689 204.682693,145.173630 
	C176.063583,156.720123 147.451004,168.282776 118.387077,179.884918 
	C110.661644,180.932465 104.434769,179.063248 98.589912,174.353195 
	C92.325081,169.304733 85.383606,165.095947 77.943558,159.974213 
	C77.943558,168.301407 77.943558,175.513885 77.943558,182.726364 
	C77.658623,182.794281 77.373680,182.862213 77.088745,182.930130 
	C71.397667,170.854279 65.706589,158.778427 59.542290,145.698456 
	C53.814224,163.013153 48.438911,179.261566 42.615818,196.863510 
	C37.767796,180.549103 33.417831,165.719299 28.896713,150.941879 
	C28.339907,149.121948 26.869461,147.581558 25.906170,145.551056 
	C30.226612,137.390488 34.081200,129.352097 38.771378,121.835068 
	C53.016579,99.004013 70.591652,79.020477 90.985718,61.426357 
	C105.077347,49.269402 120.316925,38.753448 136.695938,30.152739 
	C163.794983,15.922889 192.523300,6.332881 223.123672,2.918263 
	C223.811905,2.841467 224.377304,1.664027 225.000000,0.999999 
z"/>
<path fill="#85271B" opacity="1.000000" stroke="none" 
	d="
M149.015961,441.989410 
	C149.666061,441.082245 150.480438,440.251343 150.942215,439.256744 
	C162.641586,414.057404 174.303970,388.840881 186.299454,363.019379 
	C188.810852,357.796326 191.095642,353.225403 193.155716,348.555359 
	C195.870621,342.400879 198.409042,336.168518 201.023346,329.969666 
	C203.028915,325.342896 206.685013,324.861572 211.335312,324.886993 
	C248.366669,325.089355 285.399811,325.055634 322.431763,324.918030 
	C326.359680,324.903412 329.208679,325.563477 330.688049,330.201904 
	C335.978912,341.455261 340.896667,352.191620 345.814423,362.928009 
	C356.656403,386.399475 367.498383,409.870972 378.692078,433.916901 
	C381.699585,440.341492 384.408600,446.168182 386.997437,452.047791 
	C390.038910,458.955444 392.976074,465.908997 395.661957,473.029053 
	C384.176514,479.168488 373.171509,485.504242 361.758148,490.990417 
	C341.564087,500.697113 320.204315,506.771362 298.041565,510.109467 
	C294.952667,510.574707 292.010223,512.012451 289.000000,513.000000 
	C267.979095,513.000000 246.958206,513.000000 225.479462,512.592651 
	C224.514053,511.826904 224.050385,511.257019 223.492493,511.141235 
	C210.316818,508.407257 196.938644,506.421814 183.992828,502.861755 
	C165.273834,497.714172 147.267868,490.500854 131.023010,479.922485 
	C135.152908,472.208771 139.107040,464.742645 142.732941,457.120361 
	C145.075928,452.195007 146.938248,447.040955 149.015961,441.989410 
z"/>
<path fill="#000000" opacity="1.000000" stroke="none" 
	d="
M482.151947,133.854523 
	C468.077820,107.543449 449.293671,84.904289 427.299286,64.976921 
	C414.033325,52.957684 399.319183,42.784081 383.704773,33.879253 
	C367.455170,24.612196 350.542633,16.897854 332.533295,12.034936 
	C318.811920,8.329867 304.727783,5.971103 290.816864,2.958736 
	C289.929779,2.766637 289.144958,2.102204 288.656281,1.328750 
	C363.593719,1.000000 438.187408,1.000000 513.000000,1.000000 
	C513.000000,75.354088 513.000000,149.708389 513.000000,224.531342 
	C512.334717,224.261719 511.286499,223.617218 511.078308,222.766998 
	C510.522949,220.499039 510.328766,218.142624 510.031982,214.998581 
	C504.784058,186.005264 495.529175,159.213394 482.151947,133.854523 
z"/>
<path fill="#000000" opacity="1.000000" stroke="none" 
	d="
M224.531342,0.999999 
	C224.377304,1.664027 223.811905,2.841467 223.123672,2.918263 
	C192.523300,6.332881 163.794983,15.922889 136.695938,30.152739 
	C120.316925,38.753448 105.077347,49.269402 90.985718,61.426357 
	C70.591652,79.020477 53.016579,99.004013 38.771378,121.835068 
	C34.081200,129.352097 30.226612,137.390488 25.924164,145.588470 
	C25.858391,145.986481 25.920158,145.932846 25.615976,146.062668 
	C24.860415,147.855469 24.409035,149.518463 23.916039,151.519135 
	C13.502374,171.713959 7.358902,192.896713 4.085818,214.979324 
	C3.268632,218.212051 2.451445,221.444794 1.317129,224.338760 
	C1.000000,149.739456 1.000000,75.478920 1.000000,1.000000 
	C75.354088,1.000000 149.708389,1.000000 224.531342,0.999999 
z"/>
<path fill="#000000" opacity="1.000000" stroke="none" 
	d="
M130.708054,480.103851 
	C147.267868,490.500854 165.273834,497.714172 183.992828,502.861755 
	C196.938644,506.421814 210.316818,508.407257 223.492493,511.141235 
	C224.050385,511.257019 224.514053,511.826904 225.010803,512.592651 
	C150.406296,513.000000 75.812599,513.000000 1.000000,513.000000 
	C1.000000,438.645905 1.000000,364.291626 1.000001,289.468658 
	C1.664165,289.626648 2.841165,290.195831 2.918749,290.888214 
	C6.352898,321.536774 15.997219,350.295715 30.239761,377.442657 
	C38.848343,393.851013 49.518162,408.995300 61.568493,423.207733 
	C80.921432,446.032928 103.721573,464.568573 129.842361,479.948547 
	C130.351181,480.078033 130.708054,480.103851 130.708054,480.103851 
z"/>
<path fill="#000000" opacity="1.000000" stroke="none" 
	d="
M289.468658,513.000000 
	C292.010223,512.012451 294.952667,510.574707 298.041565,510.109467 
	C320.204315,506.771362 341.564087,500.697113 361.758148,490.990417 
	C373.171509,485.504242 384.176514,479.168488 395.892090,473.186035 
	C396.971252,472.426270 397.523804,471.695892 398.076355,470.965546 
	C405.826263,465.368347 413.997131,460.260834 421.220062,454.050720 
	C430.369934,446.183838 439.110016,437.759857 447.377380,428.965607 
	C460.212830,415.312134 470.795471,399.949982 480.113251,383.663086 
	C489.398376,367.433258 497.188141,350.554138 501.983093,332.514038 
	C505.631927,318.786011 508.031128,304.726562 511.040710,290.826324 
	C511.232880,289.938751 511.894714,289.152832 512.669006,288.659821 
	C513.000000,363.593719 513.000000,438.187408 513.000000,513.000000 
	C438.645905,513.000000 364.291626,513.000000 289.468658,513.000000 
z"/>
<path fill="#772730" opacity="1.000000" stroke="none" 
	d="
M4.547655,214.960556 
	C7.358902,192.896713 13.502374,171.713959 24.256977,151.337082 
	C25.066406,149.189163 25.493282,147.561005 25.920158,145.932846 
	C25.920158,145.932846 25.858391,145.986481 25.840397,145.949051 
	C26.869461,147.581558 28.339907,149.121948 28.896713,150.941879 
	C33.417831,165.719299 37.767796,180.549103 42.615818,196.863510 
	C48.438911,179.261566 53.814224,163.013153 59.542290,145.698456 
	C65.706589,158.778427 71.397667,170.854279 77.088745,182.930130 
	C77.373680,182.862213 77.658623,182.794281 77.943558,182.726364 
	C77.943558,175.513885 77.943558,168.301407 77.943558,159.974213 
	C85.383606,165.095947 92.325081,169.304733 98.589912,174.353195 
	C104.434769,179.063248 110.661644,180.932465 118.864761,179.935303 
	C137.465652,181.164413 154.698242,180.429871 169.897598,169.531998 
	C172.709946,167.515549 175.940491,165.948547 179.187927,164.736542 
	C180.546509,164.229507 183.109634,164.596375 184.000000,165.582123 
	C188.681244,170.764999 193.111130,176.188385 197.405609,181.701721 
	C199.732834,184.689453 202.236206,186.319992 206.257965,186.010223 
	C216.868362,185.192978 227.499771,184.581146 238.133392,184.145798 
	C266.068298,183.002213 294.005615,181.900558 321.948242,180.971298 
	C338.408813,180.423874 338.414368,180.585999 346.764679,166.556793 
	C346.935120,166.270447 347.082489,165.970016 347.259827,165.688248 
	C351.265961,159.323288 355.274872,152.960037 359.829071,145.729889 
	C363.173126,154.362625 365.870544,161.865250 369.059540,169.152756 
	C369.792755,170.828247 372.154083,172.763931 373.868927,172.866837 
	C380.843384,173.285355 387.863495,173.185257 394.852936,172.916534 
	C396.327789,172.859833 398.517456,171.618332 399.061005,170.355835 
	C402.349030,162.719147 405.254700,154.917847 408.288208,147.171570 
	C411.337036,140.443359 414.385895,133.715149 417.962830,125.821579 
	C419.666046,134.313354 421.160126,141.762512 422.814362,149.984741 
	C423.504578,154.287674 424.034637,157.817551 424.564728,161.347427 
	C425.042725,161.480164 425.520752,161.612900 425.998779,161.745636 
	C428.392334,158.284195 430.785889,154.822739 433.179443,151.361298 
	C439.741547,142.857864 446.303619,134.354416 453.316254,125.267113 
	C459.926880,137.772675 466.224670,149.686493 473.044769,162.588333 
	C476.216278,152.455063 479.018829,143.500626 481.986694,134.200348 
	C495.529175,159.213394 504.784058,186.005264 509.992126,214.575699 
	C341.610718,214.964340 173.310104,214.953064 4.547655,214.960556 
z"/>
<path fill="#661710" opacity="1.000000" stroke="none" 
	d="
M131.023010,479.922485 
	C130.708054,480.103851 130.351181,480.078033 130.193420,479.995117 
	C130.023666,437.134155 130.002426,394.356140 130.008652,351.578125 
	C130.009705,344.397217 133.701309,339.992767 139.541245,340.022217 
	C145.379349,340.051666 148.985870,344.432861 148.992111,351.666748 
	C149.017853,381.461884 149.012222,411.256989 149.017044,441.520752 
	C146.938248,447.040955 145.075928,452.195007 142.732941,457.120361 
	C139.107040,464.742645 135.152908,472.208771 131.023010,479.922485 
z"/>
<path fill="#661710" opacity="1.000000" stroke="none" 
	d="
M398.044617,470.498840 
	C397.523804,471.695892 396.971252,472.426270 396.188599,472.999634 
	C392.976074,465.908997 390.038910,458.955444 386.997437,452.047791 
	C384.408600,446.168182 381.699585,440.341492 378.949219,434.122253 
	C378.902893,406.811981 378.948669,379.870850 379.005249,352.929688 
	C379.008728,351.268799 378.909668,349.576508 379.182556,347.953308 
	C379.968842,343.275726 384.062897,339.937347 388.672089,340.028534 
	C393.094696,340.116028 396.988495,343.336334 397.780334,347.808960 
	C398.095642,349.589905 397.992554,351.454041 397.993195,353.280334 
	C398.007202,392.197601 398.008820,431.114899 398.044617,470.498840 
z"/>
<path fill="#661710" opacity="1.000000" stroke="none" 
	d="
M345.884430,362.468964 
	C340.896667,352.191620 335.978912,341.455261 331.018799,330.344238 
	C330.984131,306.980316 330.954376,283.990906 331.058533,261.002106 
	C331.068695,258.757904 331.189819,255.813171 332.533813,254.450668 
	C334.276550,252.683884 337.493073,251.058548 339.714874,251.444778 
	C341.947083,251.832825 343.938934,254.600235 345.622772,256.662476 
	C346.309204,257.503204 345.988403,259.232727 345.988373,260.557892 
	C345.988159,294.375244 345.969727,328.192566 345.884430,362.468964 
z"/>
<path fill="#661710" opacity="1.000000" stroke="none" 
	d="
M201.022888,329.502563 
	C198.409042,336.168518 195.870621,342.400879 193.155716,348.555359 
	C191.095642,353.225403 188.810852,357.796326 186.405548,362.664642 
	C186.125259,328.273865 186.030594,293.629822 186.045471,258.985809 
	C186.047562,254.106232 189.474319,250.860687 193.791443,251.036728 
	C198.069321,251.211151 200.959351,254.467178 200.973389,259.573456 
	C201.037018,282.727325 201.014145,305.881439 201.022888,329.502563 
z"/>
<path fill="#C44621" opacity="1.000000" stroke="none" 
	d="
M407.913574,147.013367 
	C405.254700,154.917847 402.349030,162.719147 399.061005,170.355835 
	C398.517456,171.618332 396.327789,172.859833 394.852936,172.916534 
	C387.863495,173.185257 380.843384,173.285355 373.868927,172.866837 
	C372.154083,172.763931 369.792755,170.828247 369.059540,169.152756 
	C365.870544,161.865250 363.173126,154.362625 359.829071,145.729889 
	C355.274872,152.960037 351.265961,159.323288 347.259827,165.688248 
	C347.082489,165.970016 346.935120,166.270447 346.764679,166.556793 
	C338.414368,180.585999 338.408813,180.423874 321.948242,180.971298 
	C294.005615,181.900558 266.068298,183.002213 238.133392,184.145798 
	C227.499771,184.581146 216.868362,185.192978 206.257965,186.010223 
	C202.236206,186.319992 199.732834,184.689453 197.405609,181.701721 
	C193.111130,176.188385 188.681244,170.764999 184.000000,165.582123 
	C183.109634,164.596375 180.546509,164.229507 179.187927,164.736542 
	C175.940491,165.948547 172.709946,167.515549 169.897598,169.531998 
	C154.698242,180.429871 137.465652,181.164413 119.314888,179.892822 
	C147.451004,168.282776 176.063583,156.720123 204.682693,145.173630 
	C205.911942,144.677689 207.201340,144.330811 209.159393,143.685684 
	C223.951004,140.430710 238.028671,137.320724 252.148651,134.416473 
	C258.470001,133.116257 264.951477,132.547974 271.224396,131.070618 
	C278.643524,129.323288 283.155029,124.458191 284.951447,116.880569 
	C286.593781,109.952721 288.911682,107.953400 296.055603,107.879768 
	C303.009186,107.808105 309.970978,108.529549 316.929169,108.902756 
	C329.085052,112.257484 341.440216,115.040909 353.320984,119.184509 
	C360.277161,121.610603 367.115906,125.404617 372.877106,130.000351 
	C383.279663,138.298523 394.673523,143.931488 407.913574,147.013367 
z"/>
<path fill="#FFFEFE" opacity="1.000000" stroke="none" 
	d="
M316.951111,108.458260 
	C309.970978,108.529549 303.009186,107.808105 296.055603,107.879768 
	C288.911682,107.953400 286.593781,109.952721 284.951447,116.880569 
	C283.155029,124.458191 278.643524,129.323288 271.224396,131.070618 
	C264.951477,132.547974 258.470001,133.116257 252.148651,134.416473 
	C238.028671,137.320724 223.951004,140.430710 209.448547,143.507019 
	C201.441147,132.079269 196.774612,119.722641 196.972824,105.700745 
	C197.399887,75.489990 222.153214,49.229305 252.416901,47.096745 
	C283.653320,44.895641 311.670593,67.093285 316.078430,97.604454 
	C316.575562,101.045494 316.684265,104.542633 316.951111,108.458260 
z"/>
<path fill="#C14723" opacity="1.000000" stroke="none" 
	d="
M432.751923,151.269592 
	C430.785889,154.822739 428.392334,158.284195 425.998779,161.745636 
	C425.520752,161.612900 425.042725,161.480164 424.564728,161.347427 
	C424.034637,157.817551 423.504578,154.287674 422.983368,150.328094 
	C426.102936,150.324875 429.213684,150.751389 432.751923,151.269592 
z"/>
<path fill="#E8B691" opacity="1.000000" stroke="none" 
	d="
M25.615974,146.062668 
	C25.493282,147.561005 25.066406,149.189163 24.298592,150.999390 
	C24.409035,149.518463 24.860415,147.855469 25.615974,146.062668 
z"/>
</svg>